
<svg width="596px" height="374px" viewBox="0 0 596 374" version="1.1" xmlns="http://www.w3.org/2000/svg" xmlns:xlink="http://www.w3.org/1999/xlink">
    <g id="Page-1" stroke="none" stroke-width="1" fill="none" fill-rule="evenodd">
        <g id="7" fill-rule="nonzero">
            <polygon id="Path" fill="#302E5E" points="0 0 595.28 0 595.28 372.68 0 372.68"></polygon>
            <polygon id="Path" fill="#1A1A3F" points="0.01 1.04 0 66.52 463.86 165.64 463.86 123.62 595.28 112.57 595.28 1.04"></polygon>
            <polygon id="Path" fill="#D94B53" points="463.86 222.4 463.86 240.52 0 308.08 0 247.18"></polygon>
            <polygon id="Path" fill="#CD181A" points="463.86 204.95 463.86 222.4 0 247.18 0 187.3"></polygon>
            <polygon id="Path" fill="#B7191C" points="463.86 187.3 463.86 204.95 0 187.3 0 130.05"></polygon>
            <polygon id="Path" fill="#991918" points="463.86 165.64 463.86 187.3 0 130.05 0 66.52"></polygon>
            <path d="M150.92,286.31 L194.55,286.31 L194.55,275.66 L191.85,257.82 L185.39,246.14 L176.9,243.8 L181.33,237.18 L179.31,227.32 L173.89,223.48 L169.16,224.42 L161.85,227.32 L160.83,235.21 L161.2,244.31 L150.38,246.82 L141.88,273.67 L147.67,281.4 L150.92,286.31 L150.92,286.31 Z M383.05,234.95 L354.18,235.26 L346.99,212.53 L347.76,207.43 L353.39,197.26 L360.78,195.22 L356.92,189.47 L358.68,180.88 L363.4,177.53 L367.51,178.36 L373.87,180.88 L374.76,187.75 L374.44,195.67 L383.86,197.85 L391.26,221.23 L386.21,227.95 L383.05,234.95 L383.05,234.95 Z M110.26,281.12 L107.54,274.12 L108.51,261.7 L96.86,254.12 L98.9,250.33 L98.93,239.88 L95.4,231.69 L84.33,231.69 L81.06,236.32 L80.25,241.88 L82.39,249.36 L85.5,254.99 L72.68,257.93 L64.61,264.26 L62.49,272.05 L62.49,288 L110.26,281.12 L110.26,281.12 Z M279.01,258.42 L280.61,248 L278.37,238.96 L271.44,234.63 L274.41,230.14 L274.43,223.4 L271.89,217.51 L263.94,217.51 L261.59,220.84 L261.01,224.84 L262.35,229.51 L260.96,235.13 L255.57,236.37 L251.64,239.45 L250.93,245.93 L248.25,265.62 L279.01,258.42 L279.01,258.42 Z" id="Shape" fill="#000000"></path>
            <polygon id="Path" fill="#48427F" points="342.39 262.02 342.39 372.68 595.28 372.68 595.28 318.15"></polygon>
            <polygon id="Path" fill="#7167AC" points="463.86 192.8 410.83 208.41 351.52 236.52 342.39 262.02 360.64 290.33 417.68 298.18 595.28 318.15 595.28 255.48 492.06 248.23 463.86 240.51"></polygon>
            <path d="M41.86,119.8 L105.18,119.8 L101.42,92.22 L95.15,82.82 L73.52,66.52 L58.16,77.13 L45.62,93.16 L41.86,119.8 L41.86,119.8 Z M170.06,37.58 L233.38,37.58 L229.61,10.01 L223.66,1.07 L181.54,1.07 L173.82,10.94 L170.06,37.58 Z M218.63,139.93 L266.48,139.93 L263.63,119.09 L258.9,111.98 L242.55,99.66 L230.95,107.68 L221.47,119.8 L218.63,139.93 Z M318.47,99.66 L366.32,99.66 L363.48,78.83 L358.74,71.72 L342.39,59.4 L330.79,67.42 L321.31,79.53 L318.47,99.66 Z M371.92,161.84 L400.96,161.84 L399.24,149.19 L396.36,144.88 L386.44,137.41 L379.4,142.27 L373.65,149.62 L371.92,161.84 L371.92,161.84 Z M442.35,142.26 L463.86,142.26 L463.86,123.62 L462.24,121.88 L456.87,117.83 L449.83,122.69 L444.07,130.05 L442.35,142.26 L442.35,142.26 Z" id="Shape" fill="#E8AE3A"></path>
            <polygon id="Path" fill="#7167AC" points="31.7 292.45 140.1 276.82 207.68 288.65 102.94 308.08"></polygon>
            <polygon id="Path" fill="#000000" points="538.02 372.68 451.74 372.68 461.5 329.39 461.65 296.72 457.8 259.49 474.7 240.91 490.35 236.59 483.36 215.42 485.48 199.12 501.6 195.97 509.84 197.9 518.09 206.21 519.98 220.75 515 236.53 542.61 242.76 550.31 266.59 543.66 294.62 539.43 305.06"></polygon>
            <path d="M565.91,260.23 L567.04,287.89 L573.83,290.76 L581.92,288.93 L581.92,260.23 L573.92,257.88 L565.91,260.23 L565.91,260.23 Z M421.85,198.58 L422.47,213.64 L426.16,215.21 L430.57,214.21 L430.57,198.58 L426.21,197.3 L421.85,198.58 Z M370.94,218.41 L375.34,217.24 L380.47,218.41 L379.15,231.6 L376.51,232.62 L372.55,231.31 L370.94,218.41 Z M433.71,203.67 L437.7,202.61 L442.35,203.67 L441.15,215.63 L438.76,216.56 L435.18,215.36 L433.71,203.67 L433.71,203.67 Z M153.66,271.51 L159.38,269.98 L166.05,271.51 L164.34,288.67 L160.9,290.01 L155.75,288.29 L153.66,271.51 L153.66,271.51 Z" id="Shape" fill="#FFF2B0"></path>
            <path d="M443.32,256.45 L449.33,257.62 L454.55,256.45 L454.55,233.87 L451.67,227.61 L451.15,214.04 L446.72,214.04 L446.98,227.35 L443.32,231.26 L443.32,256.45 L443.32,256.45 Z M85.45,293.38 L89.2,294.11 L92.46,293.38 L92.46,279.27 L90.67,275.36 L90.34,266.88 L87.57,266.88 L87.73,275.2 L85.45,277.64 L85.45,293.38 L85.45,293.38 Z" id="Shape" fill="#013A2C"></path>
            <path d="M472.06,133.99 L472.06,149.62 L595.28,152.29 L595.28,126.91 L472.06,133.99 L472.06,133.99 Z M595.28,164.77 L472.06,159.33 L472.06,177.53 L595.28,184.67 L595.28,164.77 L595.28,164.77 Z" id="Shape" fill="#000000"></path>
            <polygon id="Path" fill="#48427F" points="31.7 292.45 55.35 372.68 182.62 372.83 207.68 288.65 102.94 308.08"></polygon>
            <polygon id="Path" fill="#7167AC" points="223.49 265.62 293.87 255.48 337.74 263.15 269.74 275.77"></polygon>
            <polygon id="Path" fill="#48427F" points="223.49 265.62 238.85 317.71 270.46 326.76 321.47 317.81 337.74 263.15 269.74 275.77"></polygon>
            <polygon id="Path" fill="#3F52AC" points="436.44 346.56 433.71 330.52 440.9 298.42 439.12 274.99 450.85 272.15 432.67 242.74 415.59 238.78 403.44 240.8 390.81 237.97 370.55 245.04 359.08 267.68 362.95 288.25 368.92 321.51 366.57 342.89 400.07 350.23"></polygon>
            <path d="M440.9,298.42 L454.54,285.85 L450.85,272.15 L439.12,274.99 L440.9,298.42 L440.9,298.42 Z M436.45,346.56 L436.44,346.56 L400.07,350.23 L366.57,342.89 L365.58,351.93 L366.47,373.73 L443.32,373.73 L438.03,355.86 L436.45,346.56 L436.45,346.56 Z M415.59,238.78 L423.48,228.13 L420.54,213.14 L415.24,205.9 L400.49,205.9 L393.19,212.4 L389.66,225.93 L390.81,237.97 L403.44,240.8 L415.59,238.78 L415.59,238.78 Z" id="Shape" fill="#000000"></path>
            <polygon id="Path" fill="#FFF2B0" points="255.63 252.55 256.14 264.99 259.19 266.28 262.83 265.46 262.83 252.55 259.23 251.5"></polygon>
            <polygon id="Path" fill-opacity="0.15" fill="#FFF2B0" points="41.86 119.8 0 328.83 0.01 373.73 151.08 373.73 105.18 119.8"></polygon>
            <polygon id="Path" fill-opacity="0.15" fill="#FFF2B0" points="169.93 37.58 102.62 373.73 293.82 372.68 233.25 37.58"></polygon>
            <polygon id="Path" fill-opacity="0.15" fill="#FFF2B0" points="218.6 139.93 174.45 372.68 310.73 372.68 266.48 139.93"></polygon>
            <polygon id="Path" fill-opacity="0.15" fill="#FFF2B0" points="318.4 98.83 266.43 372.83 418.38 372.83 366.28 98.83"></polygon>
            <path d="M371.92,161.84 L362.17,231.47 L408.38,209.57 L400.97,161.84 L371.92,161.84 L371.92,161.84 Z M442.26,142.26 L434,201.59 L463.86,192.8 L463.86,142.26 L442.26,142.26 L442.26,142.26 Z" id="Shape" fill-opacity="0.15" fill="#FFF2B0"></path>
            <path d="M418,270.504005 C418,273.099565 414.697921,275.566949 409.642886,277.097047 C410.825112,282.176013 410.311455,286.221561 408.020383,287.519341 C407.482267,287.823758 406.862617,287.967956 406.177742,287.967956 C403.935589,287.967956 401.000408,286.413825 398.032613,283.706111 C395.064819,286.429847 392.129637,288 389.887485,288 C389.202609,288 388.58296,287.855802 388.052996,287.551385 C385.753771,286.253605 385.231961,282.200046 386.406033,277.105058 C381.318386,275.57496 378,273.107576 378,270.504005 C378,267.908446 381.302079,265.449073 386.37342,263.910964 C385.191194,258.831998 385.704851,254.78645 387.995923,253.48867 C388.53404,253.184253 389.153689,253.040055 389.838565,253.040055 L389.838565,254.826505 C389.463514,254.826505 389.145536,254.890593 388.900938,255.034791 C387.800245,255.667659 387.327354,258.046921 387.710558,261.107118 C387.808398,261.85214 387.947004,262.629206 388.134529,263.430304 C389.732572,263.037766 391.477375,262.74136 393.320016,262.549096 C394.404403,261.067063 395.545862,259.729229 396.687322,258.551614 C394.029352,256.140307 391.526294,254.818494 389.838565,254.818494 L389.838565,253.032044 C392.080717,253.032044 395.015899,254.586175 397.983693,257.293889 C400.951488,254.570153 403.886669,253 406.128822,253 L406.128822,254.78645 C404.432939,254.78645 401.938035,256.116274 399.280065,258.543603 C400.429678,259.721218 401.571137,261.067063 402.67183,262.549096 C404.506319,262.74136 406.251121,263.037766 407.849164,263.422293 C408.028536,262.613184 408.175296,261.820096 408.264982,261.067063 C408.640033,258.006867 408.158989,255.627604 407.050143,255.002747 C406.797391,254.86656 406.49572,254.794461 406.120669,254.794461 L406.120669,253.008011 C406.797391,253.008011 407.41704,253.152209 407.947004,253.456626 C410.246229,254.754406 410.768039,258.807965 409.593967,263.902953 C414.681614,265.433051 418,267.900435 418,270.504005 Z M407.384427,265.160678 C406.316347,264.904326 405.199348,264.69604 404.041582,264.52781 C404.441093,265.136645 404.840603,265.761501 405.215654,266.40238 C405.598859,267.043259 405.94945,267.684138 406.283734,268.325017 C406.707705,267.259556 407.082756,266.194095 407.384427,265.160678 Z M403.650224,273.692378 C404.26172,272.642939 404.824297,271.569467 405.337954,270.495995 C404.824297,269.422522 404.26172,268.357061 403.642071,267.307622 C403.006115,266.23415 402.345699,265.216754 401.668977,264.263447 C400.462291,264.167315 399.231146,264.111238 398,264.111238 C396.760701,264.111238 395.529556,264.167315 394.314717,264.271458 C393.637994,265.224765 392.985732,266.250172 392.349776,267.331655 C391.73828,268.381094 391.16755,269.454566 390.662046,270.528038 C391.175703,271.601511 391.73828,272.666972 392.357929,273.716411 C392.993885,274.789883 393.654301,275.807279 394.331023,276.760586 C395.537709,276.856718 396.768854,276.912795 398,276.912795 C399.239299,276.912795 400.470444,276.856718 401.685283,276.752575 C402.362006,275.799268 403.014268,274.773861 403.650224,273.692378 Z M406.283734,272.65095 C405.94945,273.291829 405.598859,273.940719 405.223808,274.581598 C404.848757,275.230488 404.449246,275.863355 404.049735,276.480201 C405.215654,276.311971 406.340807,276.095674 407.408887,275.839322 C407.099062,274.797894 406.724011,273.724422 406.283734,272.65095 Z M398.016307,281.198672 C398.766408,280.429618 399.524664,279.572442 400.258459,278.635157 C399.51651,278.675212 398.758255,278.691234 397.991847,278.691234 C397.233592,278.691234 396.48349,278.667201 395.749694,278.635157 C396.499796,279.572442 397.258051,280.429618 398.016307,281.198672 Z M391.950265,276.480201 C391.550754,275.871366 391.159397,275.246509 390.776192,274.605631 C390.392988,273.964752 390.042397,273.323873 389.708113,272.682994 C389.284142,273.748455 388.909091,274.813916 388.607419,275.847333 C389.675499,276.103685 390.792499,276.311971 391.950265,276.480201 Z M397.97554,259.809339 C397.225438,260.578393 396.467183,261.435569 395.733388,262.372854 C396.475336,262.332799 397.233592,262.316777 398,262.316777 C398.758255,262.316777 399.508357,262.34081 400.242152,262.372854 C399.492051,261.435569 398.733795,260.578393 397.97554,259.809339 Z M391.942112,264.52781 C390.776192,264.69604 389.65104,264.912337 388.58296,265.160678 C388.892784,266.202106 389.267835,267.275578 389.708113,268.34905 C390.042397,267.708171 390.392988,267.067292 390.768039,266.426413 C391.14309,265.777523 391.542601,265.144656 391.942112,264.52781 Z M384.563392,274.557565 C385.272727,274.853971 386.039136,275.126345 386.846311,275.374685 C387.302894,273.812543 387.906237,272.186313 388.656339,270.520027 C387.898084,268.845731 387.286588,267.21149 386.821851,265.641337 C386.030982,265.889677 385.264574,266.15404 384.563392,266.450446 C381.67713,267.652094 379.810029,269.246281 379.810029,270.504005 C379.810029,271.76173 381.67713,273.347906 384.563392,274.557565 Z M388.949857,286.005264 C389.194456,286.141451 389.50428,286.21355 389.871178,286.221561 C391.567061,286.221561 394.061965,284.891737 396.719935,282.464408 C395.570322,281.286793 394.428863,279.940948 393.32817,278.458915 C391.493681,278.266651 389.748879,277.970245 388.150836,277.585718 C387.971464,278.394827 387.824704,279.187915 387.735018,279.940948 C387.359967,283.001144 387.841011,285.380407 388.949857,286.005264 Z M408.289442,279.900893 C408.199755,279.155871 408.052996,278.378805 407.865471,277.569696 C406.267428,277.962234 404.522625,278.25864 402.679984,278.450904 C401.595597,279.932937 400.454138,281.270771 399.312678,282.448386 C401.970648,284.859693 404.473706,286.181506 406.161435,286.181506 C406.536486,286.181506 406.854464,286.117418 407.099062,285.97322 C408.199755,285.340352 408.672646,282.961089 408.289442,279.900893 Z M411.428455,274.557565 C414.314717,273.355917 416.181818,271.76173 416.189971,270.504005 C416.189971,269.246281 414.32287,267.660105 411.436608,266.450446 C410.719119,266.15404 409.952711,265.881666 409.145536,265.633326 C408.688952,267.195468 408.085609,268.821698 407.335508,270.487984 C408.093763,272.16228 408.705259,273.796521 409.169996,275.366674 C409.960864,275.118334 410.727273,274.853971 411.428455,274.557565 Z" id="Shape" fill="#FFFFFF"></path>
        </g>
    </g>
</svg>