
<svg width="596px" height="372px" viewBox="0 0 596 372" version="1.1" xmlns="http://www.w3.org/2000/svg" xmlns:xlink="http://www.w3.org/1999/xlink">
    <g id="Page-1" stroke="none" stroke-width="1" fill="none" fill-rule="evenodd">
        <g id="1" fill-rule="nonzero">
            <polygon id="Path" fill="#EAC839" points="0.11 0 595.39 0 595.39 74.32 0.11 74.32"></polygon>
            <polygon id="Path" fill="#F4DB4A" points="0.11 74.32 595.39 74.32 595.39 148.64 0.11 148.64"></polygon>
            <polygon id="Path" fill="#FAE586" points="0.013 222.089 0.233 147.769 595.511 149.535 595.291 223.855"></polygon>
            <polygon id="Path" fill="#D94B53" points="0.11 222.97 595.39 222.97 595.39 297.29 0.11 297.29"></polygon>
            <polygon id="Path" fill="#EA6875" points="0.11 297.29 595.39 297.29 595.39 371.61 0.11 371.61"></polygon>
            <polygon id="Path" fill="#005D9C" points="95.38 222.97 252.49 139.35 595.38 139.35 595.38 222.97"></polygon>
            <polygon id="Path" fill="#1B486D" points="252.49 0 595.38 0 595.38 139.35 252.49 139.35"></polygon>
            <polygon id="Path" fill="#D3D3D3" points="297.75 0 595.39 0 595.39 109.83 297.75 109.83"></polygon>
            <polygon id="Path" fill="#133759" points="95.38 222.97 595.38 222.97 595.38 371.62 95.38 371.62"></polygon>
            <path d="M297.75,0 L595.39,0 L595.39,6.81 L297.75,6.81 L297.75,0 Z M297.75,17.25 L595.39,17.25 L595.39,24.06 L297.75,24.06 L297.75,17.25 Z M297.75,34.5 L595.39,34.5 L595.39,41.31 L297.75,41.31 L297.75,34.5 Z M297.75,51.75 L595.39,51.75 L595.39,58.56 L297.75,58.56 L297.75,51.75 Z M297.75,69 L595.39,69 L595.39,75.81 L297.75,75.81 L297.75,69 Z M297.75,86.25 L595.39,86.25 L595.39,93.06 L297.75,93.06 L297.75,86.25 Z M297.75,103.5 L595.39,103.5 L595.39,110.31 L297.75,110.31 L297.75,103.5 Z" id="Shape" fill="#C1C1BF"></path>
            <polygon id="Path" fill="#000000" points="154.72 190.9 147.64 185.38 148.19 178.46 147.37 175.55 142.63 168.89 136.16 169.05 132.33 176.52 130.41 182.89 125.77 181.63 119.2 191.2 119.12 191.27 118.39 189.44 115.29 186.31 110.36 185.38 106.54 186.31 103.64 190.76 97.06 187.04 97.06 182.06 98.7 174.03 94.6 167.11 88.31 164.9 82.29 169.88 82.29 179.57 79.56 182.89 73 186.21 72.45 195.9 68.62 189.81 61.79 187.87 66.53 179.66 62.94 171.61 50.02 172.94 48.66 184 43.47 186.21 45.38 176.52 43.74 171.82 33.9 169.88 28.43 171.54 26.79 179.29 30.07 189.81 26.31 191.94 16.14 187.51 18.91 177.59 11.97 172.22 6.29 171.61 2.85 179.66 7.39 187.87 0.84 189.81 0.11 191.03 0.11 291.46 96.29 288.01 96.11 222.97"></polygon>
            <polygon id="Path" fill="#1B486D" points="434.65 195.32 320.82 194.75 354.59 186.17 344.58 176.29 434.16 176.29 414.64 181.77 437.03 189.54 424.61 192.09"></polygon>
            <polygon id="Path" fill="#3F52AC" points="352.9 42.03 344.14 77.7 348.65 59.42 354.35 63.22 353.4 91.69 393.64 91.69 395.8 60.07 402.19 60.07 400.33 50.4 392.16 39.44 386.38 36.88 380.07 42.69 376.34 43.52 374.32 43.98 368.81 43.14 365.82 42.69 364.06 39.44"></polygon>
            <path d="M393.64,91.69 L395.8,60.07 L402.19,60.07 L404.51,72.12 L403.31,91.69 L402.72,101.21 L399.34,102.01 L396.89,109.58 L393.75,111.57 L397.74,155.21 L398.74,179.13 L402.92,181.11 L404.51,185.1 L392.96,187.49 L386.98,186.3 L388.77,179.72 L386.18,157 L380.4,130.3 L373.83,113.16 L371.24,135.48 L371.44,164.97 L372.04,186.49 L364.36,187.49 L355.9,182.91 L356.3,180.92 L360.48,178.92 L357.69,146.84 L359.28,134.69 L355.69,108.18 L352.9,108.18 L353.31,100.21 L352.54,97.59 L351.8,92.53 L353.37,92.53 L353.4,91.69 L393.64,91.69 L393.64,91.69 Z M381.8,34.85 L386.38,36.88 L380.07,42.69 L376.34,43.52 L374.32,43.98 L368.81,43.14 L365.82,42.69 L364.06,39.44 L367.32,34.85 L364.06,27.49 L368.65,16.12 L378.41,14.93 L384.59,24.89 L381.8,34.85 L381.8,34.85 Z M351.68,91.69 L351.8,92.53 L346.67,92.53 L344.14,77.7 L348.65,59.42 L354.35,63.22 L353.4,91.69 L351.68,91.69 Z" id="Shape" fill="#000000"></path>
            <path d="M390,64.5028611 C390,66.3568322 387.523441,68.1192493 383.732165,69.2121767 C384.618834,72.8400092 384.233592,75.7296864 382.515287,76.656672 C382.1117,76.8741131 381.646963,76.9771115 381.133306,76.9771115 C379.451692,76.9771115 377.250306,75.8670176 375.02446,73.9329366 C372.798614,75.8784619 370.597228,77 368.915614,77 C368.401957,77 367.93722,76.8970016 367.539747,76.6795605 C365.815328,75.752575 365.423971,72.8571756 366.304525,69.2178988 C362.488789,68.1249714 360,66.3625544 360,64.5028611 C360,62.6488899 362.476559,60.892195 366.280065,59.7935454 C365.393396,56.165713 365.778638,53.2760357 367.496943,52.3490501 C367.90053,52.1316091 368.365267,52.0286107 368.878924,52.0286107 L368.878924,53.3046464 C368.597636,53.3046464 368.359152,53.3504234 368.175703,53.4534218 C367.350183,53.9054704 366.995516,55.6049439 367.282919,57.7907988 C367.356298,58.3229572 367.460253,58.8780041 367.600897,59.4502174 C368.799429,59.1698329 370.108031,58.958114 371.490012,58.8207828 C372.303302,57.7621881 373.159397,56.8065919 374.015491,55.9654383 C372.022014,54.2430762 370.144721,53.2989242 368.878924,53.2989242 L368.878924,52.0228885 C370.560538,52.0228885 372.761924,53.1329824 374.98777,55.0670634 C377.213616,53.1215381 379.415002,52 381.096616,52 L381.096616,53.2760357 C379.824704,53.2760357 377.953526,54.2259098 375.960049,55.9597162 C376.822258,56.8008698 377.678353,57.7621881 378.503873,58.8207828 C379.879739,58.958114 381.188341,59.1698329 382.386873,59.4444953 C382.521402,58.8665599 382.631472,58.3000687 382.698736,57.7621881 C382.980024,55.5763333 382.619242,53.8768597 381.787607,53.4305333 C381.598043,53.333257 381.37179,53.2817578 381.090501,53.2817578 L381.090501,52.0057221 C381.598043,52.0057221 382.06278,52.1087205 382.460253,52.3261616 C384.184672,53.2531472 384.576029,56.1485466 383.695475,59.7878233 C387.511211,60.8807507 390,62.6431678 390,64.5028611 Z M382.03832,60.6861982 C381.23726,60.50309 380.399511,60.3543145 379.531186,60.2341497 C379.830819,60.6690318 380.130453,61.1153582 380.411741,61.5731289 C380.699144,62.0308995 380.962087,62.4886702 381.212801,62.9464408 C381.530779,62.1853971 381.812067,61.4243534 382.03832,60.6861982 Z M379.237668,66.7802701 C379.69629,66.0306706 380.118223,65.2639048 380.503465,64.4971389 C380.118223,63.7303731 379.69629,62.9693294 379.231553,62.2197299 C378.754586,61.4529641 378.259274,60.7262531 377.751733,60.0453193 C376.846718,59.9766537 375.923359,59.9365988 375,59.9365988 C374.070526,59.9365988 373.147167,59.9766537 372.236038,60.0510414 C371.728496,60.7319753 371.239299,61.4644083 370.762332,62.2368963 C370.30371,62.9864958 369.875662,63.7532616 369.496535,64.5200275 C369.881777,65.2867933 370.30371,66.047837 370.768447,66.7974365 C371.245414,67.5642023 371.740726,68.2909133 372.248267,68.9718471 C373.153282,69.0405127 374.076641,69.0805676 375,69.0805676 C375.929474,69.0805676 376.852833,69.0405127 377.763962,68.966125 C378.271504,68.2851911 378.760701,67.5527581 379.237668,66.7802701 Z M381.212801,66.0363928 C380.962087,66.4941634 380.699144,66.9576562 380.417856,67.4154269 C380.136567,67.8789197 379.836934,68.3309682 379.537301,68.7715724 C380.411741,68.6514076 381.255605,68.49691 382.056665,68.3138018 C381.824297,67.5699245 381.543009,66.8031586 381.212801,66.0363928 Z M375.01223,72.1419089 C375.574806,71.5925841 376.143498,70.9803159 376.693844,70.3108263 C376.137383,70.3394369 375.568691,70.3508812 374.993885,70.3508812 C374.425194,70.3508812 373.862617,70.3337148 373.312271,70.3108263 C373.874847,70.9803159 374.443539,71.5925841 375.01223,72.1419089 Z M370.462699,68.7715724 C370.163066,68.3366903 369.869547,67.8903639 369.582144,67.4325933 C369.294741,66.9748226 369.031798,66.517052 368.781084,66.0592813 C368.463106,66.820325 368.181818,67.5813687 367.955565,68.3195239 C368.756625,68.5026322 369.594374,68.6514076 370.462699,68.7715724 Z M374.981655,56.8638132 C374.419079,57.413138 373.850387,58.0254063 373.300041,58.6948959 C373.856502,58.6662852 374.425194,58.6548409 375,58.6548409 C375.568691,58.6548409 376.131268,58.6720073 376.681614,58.6948959 C376.119038,58.0254063 375.550347,57.413138 374.981655,56.8638132 Z M370.456584,60.2341497 C369.582144,60.3543145 368.73828,60.5088121 367.93722,60.6861982 C368.169588,61.4300755 368.450876,62.1968414 368.781084,62.9636072 C369.031798,62.5058366 369.294741,62.0480659 369.576029,61.5902953 C369.857318,61.1268025 370.156951,60.6747539 370.456584,60.2341497 Z M364.922544,67.3982605 C365.454545,67.6099794 366.029352,67.8045319 366.634733,67.9819181 C366.977171,66.8661021 367.429678,65.704509 367.992254,64.5143053 C367.423563,63.3183795 366.964941,62.1510643 366.616388,61.0295262 C366.023237,61.2069123 365.44843,61.3957427 364.922544,61.6074617 C362.757848,62.4657816 361.357521,63.6044862 361.357521,64.5028611 C361.357521,65.401236 362.757848,66.5342184 364.922544,67.3982605 Z M368.212393,75.5751888 C368.395842,75.6724651 368.62821,75.7239643 368.903384,75.7296864 C370.175296,75.7296864 372.046474,74.7798123 374.039951,73.046006 C373.177742,72.2048524 372.321647,71.243534 371.496127,70.1849393 C370.120261,70.0476081 368.811659,69.8358892 367.613127,69.5612268 C367.478598,70.1391623 367.368528,70.7056535 367.301264,71.243534 C367.019976,73.4293889 367.380758,75.1288624 368.212393,75.5751888 Z M382.717081,71.2149233 C382.649817,70.6827649 382.539747,70.127718 382.399103,69.5497826 C381.200571,69.8301671 379.891969,70.041886 378.509988,70.1792172 C377.696698,71.2378119 376.840603,72.1934081 375.984509,73.0345617 C377.977986,74.7569238 379.855279,75.7010758 381.121076,75.7010758 C381.402364,75.7010758 381.640848,75.6552987 381.824297,75.5523003 C382.649817,75.1002518 383.004484,73.4007782 382.717081,71.2149233 Z M385.071341,67.3982605 C387.236038,66.5399405 388.636364,65.401236 388.642479,64.5028611 C388.642479,63.6044862 387.242152,62.4715038 385.077456,61.6074617 C384.53934,61.3957427 383.964533,61.2011902 383.359152,61.0238041 C383.016714,62.1396201 382.564207,63.3012131 382.001631,64.4914168 C382.570322,65.6873426 383.028944,66.8546578 383.377497,67.9761959 C383.970648,67.7988098 384.545455,67.6099794 385.071341,67.3982605 Z" id="Shape" fill="#FFFFFF"></path>
            <polygon id="Path" fill="#112337" points="292.75 119.81 364.39 119.81 364.39 209.97 292.75 209.97"></polygon>
            <polygon id="Path" fill="#133759" points="292.75 119.81 315.26 102.37 377.78 102.37 364.39 119.81"></polygon>
            <polygon id="Path" fill="#0B1723" points="364.39 119.81 377.78 102.37 378.32 187.93 364.39 210.16"></polygon>
            <polygon id="Path" fill="#112337" points="353.37 117.05 321.13 117.05 324.38 104.39 366.21 104.23"></polygon>
            <polygon id="Path" fill="#2F668C" points="321.13 92.53 353.38 92.53 353.38 117.05 321.13 117.05"></polygon>
            <path d="M292.75,222.93 L58.22,0 L0.11,0 L95.38,222.97 L248.27,222.97 L292.75,222.93 Z M99.06,0 L430.21,222.97 L511.8,222.97 L595.38,222.32 L595.38,168.32 L143.55,0 L99.06,0 Z" id="Shape" fill-opacity="0.15" fill="#FFFFFF"></path>
            <polygon id="Path" fill-opacity="0.15" fill="#FFFFFF" points="544.75 0 336.58 222.97 252.49 222.97 208 222.93 181.35 222.9 152.26 222.88 488.44 0"></polygon>
            <polygon id="Path" fill="#0E181C" points="588.93 246.82 587.8 256.13 590.34 266.86 584.97 275.61 586.67 287.47 581.02 284.39 581.02 280.69 574.81 274.76 570.58 273.07 563.52 280.69 557.31 276.74 560.41 269.68 560.41 256.7 552.79 250.21 547.99 246.82 540.09 253.59 540.09 274.2 533.6 274.2 529.08 279.28 524.48 281.74 521.74 279 516.37 277.87 508.75 277.87 505.37 285.77 493.23 284.41 497.18 272.51 494.36 258.39 490.97 253.59 483.91 253.59 475.16 259.24 475.72 267.99 477.42 279.56 475.16 286.9 465.56 282.39 470.08 274.76 470.08 264.6 465.84 258.11 453.7 254.72 448.06 267.71 445.52 277.87 436.2 282.95 427.45 294.81 417.76 280.41 409.73 278.72 413.33 270.53 413.33 261.78 409.73 254.72 395.55 255.85 388.77 264.32 388.77 277.87 380.08 277.87 368.87 284.65 357.86 276.18 358.71 265.59 357.44 261.14 350.1 250.95 340.07 251.19 334.15 262.63 331.18 272.37 323.98 270.44 313.82 285.07 313.69 285.19 312.55 282.39 307.75 277.59 300.13 276.18 294.2 277.59 289.71 284.41 279.52 278.72 279.52 271.1 282.06 258.81 275.71 248.23 265.97 244.84 256.65 252.46 256.65 267.28 252.42 272.37 242.26 277.45 241.41 292.27 235.48 282.95 224.9 279.99 232.24 267.43 226.69 255.12 206.68 257.14 204.57 274.06 196.52 277.45 199.49 262.63 196.95 255.43 181.7 252.46 173.23 255 170.69 266.86 175.77 282.95 169.96 286.2 154.2 279.42 158.5 264.26 147.75 256.05 138.94 255.12 133.62 267.43 140.65 279.99 130.51 282.95 124.83 292.27 124.02 277.45 114.28 272.37 110.22 267.28 110.22 252.46 101.29 244.84 91.96 248.23 85.87 258.81 88.31 271.1 88.31 278.72 78.54 284.41 74.24 277.59 68.56 276.18 61.26 277.59 56.66 282.39 55.56 285.19 55.44 285.07 45.7 270.44 38.8 272.37 35.96 262.63 30.28 251.19 20.68 250.95 13.64 261.14 12.43 265.59 13.24 276.18 2.69 284.65 0.11 283.02 0.11 371.61 595.38 371.61 595.38 240.14"></polygon>
            <polygon id="Path" fill="#142833" points="591.07 317.01 584.8 325.3 567.36 315.56 572.44 299.47 569.9 287.61 561.43 285.07 546.18 288.04 543.64 295.23 546.61 310.06 538.56 306.67 536.45 289.75 516.44 287.73 510.89 300.03 518.24 312.6 507.65 315.56 501.72 324.88 500.87 310.06 490.71 304.97 486.48 299.89 486.48 285.07 477.16 277.45 467.42 280.84 461.07 291.42 463.61 303.7 463.61 311.32 453.42 317.01 448.93 310.2 443 308.78 435.38 310.2 430.58 315 429.44 317.79 429.31 317.68 419.15 303.04 411.95 304.97 408.98 295.23 403.06 283.8 387.81 280.41 382.31 288.46 384.42 298.2 385.27 308.78 374.26 317.25 363.05 310.48 354.36 310.48 354.36 296.93 347.58 288.46 333.4 287.33 329.8 294.39 329.8 303.14 333.4 311.32 325.37 313.02 315.68 327.42 306.93 315.56 297.61 310.48 295.07 300.31 289.43 287.33 277.29 290.72 273.05 297.21 273.05 307.37 277.57 315 267.97 319.51 265.71 312.17 267.41 300.6 267.97 291.85 259.22 286.2 252.16 286.2 248.78 291 245.95 305.11 249.91 317.01 237.76 318.38 234.38 310.48 226.75 310.48 221.39 311.61 218.65 314.35 214.05 311.89 209.53 306.81 203.04 306.81 203.04 286.2 195.14 279.42 190.34 282.81 182.72 289.31 182.72 302.29 185.82 309.35 179.61 313.3 172.55 305.68 166.99 293.24 156 292.24 153.64 295.9 147.75 313.02 144.01 311.61 138.87 310.48 131.57 310.48 128.32 318.38 116.69 317.01 120.48 305.11 117.77 291 114.52 286.2 107.76 286.2 99.38 291.85 99.92 300.6 101.54 312.17 99.38 319.51 90.18 315 94.5 307.37 94.5 297.21 90.45 290.72 78.81 287.33 73.4 300.31 70.97 310.48 62.04 315.56 53.66 327.42 44.37 313.02 36.68 311.32 40.13 303.14 40.13 294.39 36.68 287.33 23.09 288.46 16.59 296.93 16.59 310.48 8.27 310.48 0.11 315.62 0.11 371.61 595.38 371.61 595.38 305.4"></polygon>
            <polygon id="Path" fill="#213D49" points="595.38 371.61 595.38 308.74 588.93 315.42 587.8 324.73 590.34 335.46 584.97 344.21 586.67 356.07 581.02 352.99 581.02 349.29 574.81 343.36 570.58 341.67 563.52 349.29 557.31 345.34 560.41 338.28 560.41 325.3 552.79 318.8 547.15 322.18 534.44 329.74 535.71 337.37 540.09 342.8 533.6 342.8 529.08 347.88 524.48 350.34 521.74 347.6 516.37 346.47 508.75 346.47 505.36 354.37 493.23 353 497.18 341.1 494.35 326.99 490.97 322.19 483.91 322.19 475.16 327.84 475.72 336.59 477.42 348.16 475.16 355.5 465.56 350.99 470.08 343.36 470.08 333.2 465.84 326.71 453.7 323.32 443.4 335.25 445.51 346.47 436.2 351.55 427.73 352.61 417.76 349.01 409.73 347.31 413.33 339.13 413.33 330.38 409.73 323.32 400.92 317.74 388.77 332.92 388.77 346.47 375.22 343.67 368.87 353.24 357.86 344.77 358.71 334.19 358 325.51 349.25 315.72 340.07 319.79 334.15 331.22 331.18 340.96 318.9 340.18 313.82 353.67 313.69 353.78 312.55 350.99 311.42 343.67 304.08 337.08 293.92 341.6 289.71 353 279.52 347.31 279.52 339.69 282.06 327.41 275.71 316.83 265.97 313.44 256.65 321.06 256.65 335.88 252.42 340.96 242.26 346.05 241.41 360.87 235.48 351.55 224.9 348.59 230.96 327.49 219.39 320.43 206.68 325.74 204.57 342.66 196.52 346.05 193.98 333.98 190.79 322.83 181.7 321.06 173.23 323.6 170.69 335.46 175.77 351.55 169.38 355.12 165.24 348.2 158.13 346.46 158.13 346.12 154.57 344.5 158.75 337.45 154.75 328.91 147.75 321.22 145.93 320.43 134.84 327.49 140.66 348.59 130.51 351.55 124.83 360.87 124.02 346.05 114.28 340.96 110.22 335.88 110.22 321.06 101.29 313.44 91.96 316.83 85.87 327.41 88.31 339.69 88.31 347.31 78.54 353 74.51 341.6 64.77 337.08 57.74 343.67 56.66 350.99 55.56 353.78 55.44 353.67 50.57 340.18 38.8 340.96 35.96 331.22 30.28 319.79 21.49 315.72 13.1 325.51 12.43 334.19 13.24 344.77 2.69 353.24 0.11 349.19 0.11 371.61"></polygon>
        </g>
    </g>
</svg>