<svg width="596" height="372" xmlns="http://www.w3.org/2000/svg"><g fill-rule="nonzero" fill="none"><path fill="#F08323" d="M0 45.05h595.28V90.1H0z"/><path fill="#DA6915" d="M0 0h595.28v45.05H0z"/><path fill="#F59F49" d="M0 89.97h595.28v45.05H0z"/><path fill="#F4B749" d="M0 134.9h595.28v45.05H0z"/><path d="M595.28 16.8l-23.64 5.79-19.67 6.94-28.54 4.24-18.51 8.44-6.94 6.22-19.48 3.47 6.75 10.03 20.06 3.08H535l27.67-3.85 19 3.85h13.61V16.8zm-86.63 73.71l14.57 4.3h15.88l14.65-5.62 3.66-8.98-3.66-3.72-18.81 1.95-11.22-1.24-10.5-.71-6.37 4.45 1.8 9.57z" fill="#FFF"/><path fill="#7167AC" d="M595.28 371.62H0V179.36h595.28z"/><circle fill="#D94B53" cx="93.3" cy="86.44" r="28.95"/><path fill="#133759" d="M373.37 199.03v64.1h-23.06v-22.84h-7.52v22.84h-8.69v-22.84h-7.51v22.84h-24.56v-22.84h-7.52v22.84h-3.48v-22.84h-7.52v22.84h-24.55v-22.84h-7.52v22.84h-8.68v-22.84h-7.52v22.84h-23.05v-77.79l161.18 13.69z"/><path fill="#005D9C" d="M373.37 181.82v17.21l-161.18-13.69v-3.52z"/><path d="M373.37 123v58.8h-22.5l-4.57-18.7-4.56 18.7h-6.78l-4.56-18.7-4.61 18.72h-66.06l-4.57-18.7-4.56 18.7h-6.81l-4.57-18.7-4.56 18.7h-22.47v-70.38L277 116.1v23l12.92-18.27V117l5.71.42v3.35l12.92 18.27v-20.7l64.82 4.66zm-66.34 41.65c-.022-7.866-6.414-14.227-14.28-14.21-7.866.017-14.231 6.404-14.22 14.27.011 7.866 6.394 14.235 14.26 14.23a14.25 14.25 0 0 0 14.24-14.26v-.03z" fill="#133759"/><path fill="#005D9C" d="M373.37 104.31v18.72l-64.82-4.66v-6.93h-12.92v6.01l-5.71-.43v-5.58H277v4.66l-64.81-4.66v-7.13z"/><path d="M368.68 53.75v50.56h-73v-.66h12.86V57.37l7.85-24.22h34.58l17.71 20.6zm-18.54 49.9V65.56l-4.35-10.69L341.45 66v37.67h8.69v-.02zm-14.62 0V65.56l-4.35-10.69L326.79 66v37.67h8.69l.04-.02z" fill="#133759"/><path fill="#005D9C" d="M360.67 33.04l8.01 20.71-17.7-20.6 4.68-13.54z"/><path fill="#4594D1" d="M346.29 163.12l4.57 18.7h-9.13z"/><path fill="#2E7BAF" d="M342.79 240.29h7.51v22.83h-7.51z"/><path d="M350.14 65.56v38.09h-8.69V65.98l4.35-11.11 4.34 10.69zm-14.61 0v38.09h-8.69V65.98l4.34-11.11 4.35 10.69zm-5.14 97.56l4.56 18.7h-9.13l4.57-18.7z" fill="#4594D1"/><path fill="#2E7BAF" d="M326.59 240.29h7.51v22.83h-7.51z"/><path fill="#4594D1" d="M308.55 118.37v20.7l-12.92-18.27v-9.36h12.92zM292.79 150.42c7.876 0 14.26 6.384 14.26 14.26 0 7.876-6.384 14.26-14.26 14.26-7.876 0-14.26-6.384-14.26-14.26a14.25 14.25 0 0 1 14.26-14.26z"/><path d="M294.51 240.29h7.52v22.83h-7.52v-22.83zm1.17-136.64v.66h-5.82v-.66l2.92-40.27 2.9 40.27zm-12.17 136.64h7.51v22.83h-7.51v-22.83z" fill="#005D9C"/><path fill="#4594D1" d="M289.92 117.02v3.78L277 139.07v-27.63h12.92z"/><path d="M289.86 103.65v.66h-73V53.75l17.7-20.6h34.58l7.85 24.22v46.28h12.87zm-31.15 0V66l-4.34-11.11-4.35 10.69v38.09h8.69v-.02zm-14.62 0V66l-4.3-11.13-4.34 10.69v38.09h8.69-.05z" fill="#133759"/><path fill="#4594D1" d="M255.16 163.12l4.57 18.7h-9.13l4.56-18.7z"/><path fill="#005D9C" d="M251.44 240.29h7.51v22.83h-7.51z"/><path d="M258.71 65.98v37.67h-8.69V65.56l4.35-10.69 4.34 11.11zm-14.62 0v37.67h-8.68V65.56l4.33-10.69 4.35 11.11zm-4.85 97.14l4.57 18.7h-9.13l4.56-18.7z" fill="#4594D1"/><path d="M235.24 240.29h7.51v22.83h-7.51v-22.83zm-5.35-220.68l4.68 13.54-17.71 20.6 8.02-20.71 5.01-13.43z" fill="#005D9C"/><path fill="#FFF" d="M60.19 88.64l23.11 5.1 20.73 10.54 16.65-1.7 9.52 1.7 1.36 10.19-9.52 11.56H94.51l-25.15-4.57-22.09 4.57-18.69-4.57-3.75-10.48 3.75-10.44L44.3 91.7z"/><path fill="#112337" d="M595.28 315.24l-102.47-21.81 23.73-17.75 23.69 4.03 28.48-2.83 11.58-9.59 14.99.3v47.65z"/><path fill="#48427F" d="M595.28 313.9l-168.61-37-211.17-29.39-163.87 11-51.63-27v139.94h595.28z"/><path fill="#302E5E" d="M90.76 324.81h228.95L236.5 340.3l30.77 18.1H69.59l60.98-8.43-110.66-5.03 58.47-15.13 12.38-5z"/><path fill="#133759" d="M223.03 335.54v6.07h-21.21v-4.79L194 325.98l-6.69-11.33-9.26-11.15-13.56-5.59-10.89-1.6-10.9 1.6-13.55 5.59-9.26 11.15-6.69 11.33-7.82 10.84v4.79h-21.2v-6.07h3.02l30.46-51.19 78.78 11.6L220 335.54z"/><path fill="#005D9C" d="M189.54 284.35l6.9 11.6-78.78-11.6v-5.25h71.88z"/><path d="M192.72 270.32v8.78h-78.24v-8.78h8.31l8-23.6 5.19-21.52 36.43 4.8 4 16.74 8 23.6h8.29l.02-.02zm-21.26-.16l-6.16-16.58-3.19-19.35h-17l-3.19 19.35-6.16 16.58h35.72-.02zM174.86 216.79v6.16h-42.53v-6.16h4.68L148.5 72.41l-.99-4.3 11.52 8.46 11.15 140.22z" fill="#133759"/><path fill="#005D9C" d="M170.71 222.95l1.7 7.03-36.46-4.78h-.01l.54-2.25h34.23z"/><path fill="#133759" d="M167.21 56.03v8.94h-27.22v-8.94h6.16l1.28-7.22 4.55-2.98 1.62-1.07 1.63 1.07 4.54 2.98 1.27 7.22z"/><path d="M160.4 64.97l-1.69 7.44.32 4.16-11.52-8.46-.71-3.14h13.6zm-6.8-48.17l1.63 29.03-1.63-1.07V16.8z" fill="#005D9C"/><path fill="#133759" d="M153.6 16.8v27.96l-1.62 1.07z"/><path d="M0 371.97h186.5l-59.65-36.87-29.98-23.67L0 290.15v81.82zm595.28-170.25h-83.02l55.48-23.57 27.54-16.21v39.78zM0 179.29h101.71l-33.9-15.52-9.39-10.62L0 144.57v34.72z" fill="#112337"/><path fill="#005D9C" d="M512.26 176.27v3.08h-27.87v-5.92l27.87 2.84z"/><path fill="#133759" d="M512.26 170.54v5.73l-27.87-2.84v-2.89z"/><path fill="#005D9C" d="M503.16 155.85h9.1v14.68h-9.1z"/><path fill="#005D9C" d="M503.16 151.97h9.1v3.89h-9.1z"/><path fill="#4594D1" d="M499.94 164.57v5.97h-13.18v-5.69l1.23-4.54 2.27-2.28h3.52l4.35 3.23z"/><path fill="#005D9C" d="M498.41 132.91l1.53 10.24-9.1-1.14-6.45 1.14v-10.24l3.99-5.11 3.02-1.14 3.61 1.71 3.4 4.54z"/><path fill="#4594D1" d="M490.08 144.57h5.49v8.06h-5.49z"/><path d="M492.16 154.52l-7.78 1.33v-12.7l6.41-1.15 9.1 1.14 3.22 2.46v10.24l-10.95-1.32zm-2.08-1.89h5.49v-8.06h-5.49v8.06z" fill="#005D9C"/><path fill="#005D9C" d="M484.39 170.54v-14.69l7.77-1.33 11 1.33v14.69h-3.22v-5.97l-1.81-3.31-4.35-3.23h-3.52l-2.27 2.28-1.23 4.54v5.69h-2.37z"/><path fill="#133759" d="M484.39 170.54v8.81h-7.58v-40.56l7.58-.14v31.89z"/><path fill="#005D9C" d="M484.39 125.39v7.52l-11.18-5.3-9.67-2.22h-5.78l-9.68 2.22-11.17 5.3v-7.52l10.28-4.13 7.67-1.71h11.57l7.68 1.71 10.28 4.13z"/><path d="M484.39 116.81v8.58l-10.28-4.13-7.68-1.71h-11.57l-7.67 1.71-10.28 4.13v-8.58l3.78-3.23 9.98-4.17 9.98-1.14 9.97 1.14 9.98 4.17 3.79 3.23zm-4.07 16.1l4.07 5.74-7.58.14 3.51-5.88z" fill="#133759"/><path d="M479.65 104.86l.95 8.72-9.98-4.17-9.97-1.14-9.98 1.14-9.98 4.17.95-8.72 8.53-15.92 6.74-2.56 3.74-1.42 3.73 1.42 6.75 2.56 8.52 15.92zm-2.84 70.42v4.07h-32.32v-7.62l32.32 3.55z" fill="#005D9C"/><path fill="#133759" d="M476.81 168.74v6.54l-32.32-3.55v-2.99h32.32z"/><path fill="#005D9C" d="M476.81 151.97v16.77h-10.24v-10.71l-5.92-6.06z"/><path fill="#005D9C" d="M476.81 145.86v6.11h-32.32v-6.11z"/><path d="M467.57 130.5v15.36h-13.84V130.5l6.92-5.11 6.92 5.11zm-1 27.53v10.71h-11.85v-10.71l5.93-6.06 5.92 6.06z" fill="#4594D1"/><path d="M460.65 125.39h2.89l9.67 2.22 11.18 5.3v5.74l-4.07-5.74-3.51 5.88v7.07h-9.24V130.5l-6.92-5.11zm1.18-58.44h2.55v19.43l-3.73-1.42-3.74 1.42V66.95h4.92zm-1.18 85.02l-5.93 6.06v10.71h-10.23v-16.77h16.16z" fill="#005D9C"/><path d="M436.91 132.91l11.17-5.3 9.68-2.22h2.89l-6.92 5.11v15.36h-9.24v-7.07l-3.51-5.88-4.07 5.74v-5.74zm22.45-74.02h-3.31v-2.83h3.31v-3.23h2.38v3.14h3.27v2.74h-3.18v8.24h-2.47v-8.06z" fill="#005D9C"/><path d="M444.49 168.74v10.61h-7.58v-40.7l7.58.14v29.95zm-3.51-35.83l3.51 5.88-7.58-.14 4.07-5.74z" fill="#133759"/><path d="M436.91 174.28v5.07h-27.86v-6.77l27.86 1.7zm-2.38-9.43l-1.23-4.54-2.27-2.28h-3.51l-4.36 3.23-1.79 3.31v5.97h-3.23v-14.69l10.99-1.33 7.78 1.33v14.69h-2.38v-5.69zm2.38-26.2v4.5l-6.45-1.14-9.09 1.14 1.51-10.24 3.41-4.54 3.6-1.71 3.04 1.14 3.98 5.11v5.74z" fill="#005D9C"/><path d="M434.53 164.85v5.69h-13.16v-5.97l1.79-3.31 4.36-3.23h3.51l2.27 2.28 1.23 4.54zm-8.81-20.28h5.5v8.06h-5.5v-8.06z" fill="#4594D1"/><path d="M425.71 144.57v8.06h5.5v-8.06h-5.5zm3.41 9.95l-11 1.33v-10.24l3.22-2.46 9.1-1.14 6.44 1.14v12.7l-7.76-1.33zM409.05 155.85h9.1v14.68h-9.1z" fill="#005D9C"/><path fill="#005D9C" d="M409.05 151.97h9.1v3.89h-9.1z"/><path fill="#133759" d="M418.14 170.54h18.77v3.74l-27.86-1.7v-2.04h9.09z"/><path d="M429.8 272.27h40.26v18.56H429.8v-18.56zm35.83 54.37v20.13H436.6v-20.13l5.18-10.19 9.59-3.92 8.76 3.4 5.5 10.71zm-107.14 0v20.13h-29.02v-20.13l5.49-10.71 8.75-3.4 9.6 3.92 5.18 10.19zm-33.47-54.37h40.26v18.56h-40.26v-18.56z" fill="#4594D1"/><path fill="#133759" d="M478.25 361.68l3.84 9.93-56.72-10.71v-7.06h52.88z"/><path fill="#005D9C" d="M478.25 309.39v37.38h-12.62v-20.13l-5.5-10.71-8.76-3.4-9.59 3.92-5.18 10.19v20.13h-12.02v-44.7l-2.08-6.69 55.75 14.01z"/><path d="M485.23 346.77v7.07h-65.88v-7.07h65.88zm-3.14 24.84h-61.43l4.71-10.71 56.72 10.71z" fill="#005D9C"/><path fill="#133759" d="M369.73 360.9l4.71 10.71-57.59-9.93v-7.84h52.88z"/><path d="M375.74 346.77v7.07h-65.88v-7.07h65.88zm-1.3 24.84H313l3.85-9.93 57.59 9.93zm-3.93-66.66v41.82h-12.02v-20.13l-5.18-10.19-9.6-3.92-8.75 3.4-5.49 10.71v20.13h-12.62v-54.45l53.66 12.63zm110.28-75.82v12.81H314.31v-12.81h166.48zm12.02 12.81l-11.18 16.27h-.01l-176.11-11.57-3.23-4.7h190.53z" fill="#005D9C"/><path fill="#133759" d="M486.02 225.39v3.74H309.08v-8.97z"/><path fill="#005D9C" d="M486.02 217.11v8.28l-176.94-5.23v-3.05z"/><path fill="#133759" d="M481.63 258.21l-3.38 4.91h-161.4l-11.34-16.48 176.11 11.57h.01z"/><path d="M478.24 263.12v46.27l-55.75-14-3.93-12.66-21-8.11-21 8.11-6 19.35V305l-53.66-12.64v-29.24h161.39-.05zm-8.18 27.71v-18.56h-40.27v18.56H470.06zm-104.78 0v-18.56h-40.26v18.56h40.26z" fill="#005D9C"/></g></svg>