
<svg width="596px" height="372px" viewBox="0 0 596 372" version="1.1" xmlns="http://www.w3.org/2000/svg" xmlns:xlink="http://www.w3.org/1999/xlink">
    <g id="Page-1" stroke="none" stroke-width="1" fill="none" fill-rule="evenodd">
        <g id="4">
            <rect id="Rectangle" fill="#133759" fill-rule="nonzero" transform="translate(297.680000, 232.080000) rotate(180.000000) translate(-297.680000, -232.080000) " x="0.04" y="185.56" width="595.28" height="93.04"></rect>
            <rect id="Rectangle" fill="#0D283F" fill-rule="nonzero" transform="translate(297.680000, 325.130000) rotate(180.000000) translate(-297.680000, -325.130000) " x="0.04" y="278.61" width="595.28" height="93.04"></rect>
            <rect id="Rectangle" fill="#04477F" fill-rule="nonzero" transform="translate(297.680000, 139.300000) rotate(180.000000) translate(-297.680000, -139.300000) " x="0.04" y="92.78" width="595.28" height="93.04"></rect>
            <rect id="Rectangle" fill="#005D9C" fill-rule="nonzero" transform="translate(297.680000, 46.530000) rotate(180.000000) translate(-297.680000, -46.530000) " x="0.04" y="0.01" width="595.28" height="93.04"></rect>
            <polygon id="Path" fill="#000000" fill-rule="nonzero" points="493.23 0 493.32 0.71 494.74 14.96 499.4 19.39 475.61 28.94 467.46 40.96 467.46 40.96 470.08 57.47 474.36 86.93 474.04 94.16 520.41 112.21 521.56 108.69 530.88 106.6 545.54 90.51 545.54 46.21 533.15 32.87 518.65 19.34 524.9 8.67 524.13 0"></polygon>
            <polygon id="Path" fill="#000000" fill-rule="nonzero" points="414.16 100.72 408.46 126.99 407.18 136.66 464.35 136.35 478.88 76.8 474.58 48.45 464.32 29.9 455.9 28.21 457.5 4.58 454.66 0 426.93 0 423.4 5.24 425.88 26.99 408.69 30.98 395.19 73.64 404.4 85.92"></polygon>
            <polygon id="Path" fill="#000000" fill-rule="nonzero" points="152.56 111.52 148.59 134.86 156.84 166.62 160.75 175.4 160.75 111.52"></polygon>
            <polygon id="Path" fill="#3F52AC" fill-rule="nonzero" points="156.97 85.61 152.56 111.52 160.75 111.52 160.75 175.4 230.64 175.4 234.54 118.23 246.1 118.23 242.74 100.73 227.96 80.92 217.5 76.29 206.09 86.79 199.36 88.3 195.7 89.12 185.74 87.61 180.33 86.79 177.16 80.92"></polygon>
            <path d="M216,125.504005 C216,128.099565 212.697921,130.566949 207.642886,132.097047 C208.825112,137.176013 208.311455,141.221561 206.020383,142.519341 C205.482267,142.823758 204.862617,142.967956 204.177742,142.967956 C201.935589,142.967956 199.000408,141.413825 196.032613,138.706111 C193.064819,141.429847 190.129637,143 187.887485,143 C187.202609,143 186.58296,142.855802 186.052996,142.551385 C183.753771,141.253605 183.231961,137.200046 184.406033,132.105058 C179.318386,130.57496 176,128.107576 176,125.504005 C176,122.908446 179.302079,120.449073 184.37342,118.910964 C183.191194,113.831998 183.704851,109.78645 185.995923,108.48867 C186.53404,108.184253 187.153689,108.040055 187.838565,108.040055 L187.838565,109.826505 C187.463514,109.826505 187.145536,109.890593 186.900938,110.034791 C185.800245,110.667659 185.327354,113.046921 185.710558,116.107118 C185.808398,116.85214 185.947004,117.629206 186.134529,118.430304 C187.732572,118.037766 189.477375,117.74136 191.320016,117.549096 C192.404403,116.067063 193.545862,114.729229 194.687322,113.551614 C192.029352,111.140307 189.526294,109.818494 187.838565,109.818494 L187.838565,108.032044 C190.080717,108.032044 193.015899,109.586175 195.983693,112.293889 C198.951488,109.570153 201.886669,108 204.128822,108 L204.128822,109.78645 C202.432939,109.78645 199.938035,111.116274 197.280065,113.543603 C198.429678,114.721218 199.571137,116.067063 200.67183,117.549096 C202.506319,117.74136 204.251121,118.037766 205.849164,118.422293 C206.028536,117.613184 206.175296,116.820096 206.264982,116.067063 C206.640033,113.006867 206.158989,110.627604 205.050143,110.002747 C204.797391,109.86656 204.49572,109.794461 204.120669,109.794461 L204.120669,108.008011 C204.797391,108.008011 205.41704,108.152209 205.947004,108.456626 C208.246229,109.754406 208.768039,113.807965 207.593967,118.902953 C212.681614,120.433051 216,122.900435 216,125.504005 Z M205.384427,120.160678 C204.316347,119.904326 203.199348,119.69604 202.041582,119.52781 C202.441093,120.136645 202.840603,120.761501 203.215654,121.40238 C203.598859,122.043259 203.94945,122.684138 204.283734,123.325017 C204.707705,122.259556 205.082756,121.194095 205.384427,120.160678 Z M201.650224,128.692378 C202.26172,127.642939 202.824297,126.569467 203.337954,125.495995 C202.824297,124.422522 202.26172,123.357061 201.642071,122.307622 C201.006115,121.23415 200.345699,120.216754 199.668977,119.263447 C198.462291,119.167315 197.231146,119.111238 196,119.111238 C194.760701,119.111238 193.529556,119.167315 192.314717,119.271458 C191.637994,120.224765 190.985732,121.250172 190.349776,122.331655 C189.73828,123.381094 189.16755,124.454566 188.662046,125.528038 C189.175703,126.601511 189.73828,127.666972 190.357929,128.716411 C190.993885,129.789883 191.654301,130.807279 192.331023,131.760586 C193.537709,131.856718 194.768854,131.912795 196,131.912795 C197.239299,131.912795 198.470444,131.856718 199.685283,131.752575 C200.362006,130.799268 201.014268,129.773861 201.650224,128.692378 Z M204.283734,127.65095 C203.94945,128.291829 203.598859,128.940719 203.223808,129.581598 C202.848757,130.230488 202.449246,130.863355 202.049735,131.480201 C203.215654,131.311971 204.340807,131.095674 205.408887,130.839322 C205.099062,129.797894 204.724011,128.724422 204.283734,127.65095 Z M196.016307,136.198672 C196.766408,135.429618 197.524664,134.572442 198.258459,133.635157 C197.51651,133.675212 196.758255,133.691234 195.991847,133.691234 C195.233592,133.691234 194.48349,133.667201 193.749694,133.635157 C194.499796,134.572442 195.258051,135.429618 196.016307,136.198672 Z M189.950265,131.480201 C189.550754,130.871366 189.159397,130.246509 188.776192,129.605631 C188.392988,128.964752 188.042397,128.323873 187.708113,127.682994 C187.284142,128.748455 186.909091,129.813916 186.607419,130.847333 C187.675499,131.103685 188.792499,131.311971 189.950265,131.480201 Z M195.97554,114.809339 C195.225438,115.578393 194.467183,116.435569 193.733388,117.372854 C194.475336,117.332799 195.233592,117.316777 196,117.316777 C196.758255,117.316777 197.508357,117.34081 198.242152,117.372854 C197.492051,116.435569 196.733795,115.578393 195.97554,114.809339 Z M189.942112,119.52781 C188.776192,119.69604 187.65104,119.912337 186.58296,120.160678 C186.892784,121.202106 187.267835,122.275578 187.708113,123.34905 C188.042397,122.708171 188.392988,122.067292 188.768039,121.426413 C189.14309,120.777523 189.542601,120.144656 189.942112,119.52781 Z M182.563392,129.557565 C183.272727,129.853971 184.039136,130.126345 184.846311,130.374685 C185.302894,128.812543 185.906237,127.186313 186.656339,125.520027 C185.898084,123.845731 185.286588,122.21149 184.821851,120.641337 C184.030982,120.889677 183.264574,121.15404 182.563392,121.450446 C179.67713,122.652094 177.810029,124.246281 177.810029,125.504005 C177.810029,126.76173 179.67713,128.347906 182.563392,129.557565 Z M186.949857,141.005264 C187.194456,141.141451 187.50428,141.21355 187.871178,141.221561 C189.567061,141.221561 192.061965,139.891737 194.719935,137.464408 C193.570322,136.286793 192.428863,134.940948 191.32817,133.458915 C189.493681,133.266651 187.748879,132.970245 186.150836,132.585718 C185.971464,133.394827 185.824704,134.187915 185.735018,134.940948 C185.359967,138.001144 185.841011,140.380407 186.949857,141.005264 Z M206.289442,134.900893 C206.199755,134.155871 206.052996,133.378805 205.865471,132.569696 C204.267428,132.962234 202.522625,133.25864 200.679984,133.450904 C199.595597,134.932937 198.454138,136.270771 197.312678,137.448386 C199.970648,139.859693 202.473706,141.181506 204.161435,141.181506 C204.536486,141.181506 204.854464,141.117418 205.099062,140.97322 C206.199755,140.340352 206.672646,137.961089 206.289442,134.900893 Z M209.428455,129.557565 C212.314717,128.355917 214.181818,126.76173 214.189971,125.504005 C214.189971,124.246281 212.32287,122.660105 209.436608,121.450446 C208.719119,121.15404 207.952711,120.881666 207.145536,120.633326 C206.688952,122.195468 206.085609,123.821698 205.335508,125.487984 C206.093763,127.16228 206.705259,128.796521 207.169996,130.366674 C207.960864,130.118334 208.727273,129.853971 209.428455,129.557565 Z" id="Shape" fill="#FFFFFF" fill-rule="nonzero"></path>
            <polygon id="Path" fill="#000000" fill-rule="nonzero" points="160.75 186.3 160.75 192.93 162.01 205.23 168.51 253.16 165.62 275.13 170.66 333.15 163.11 336.76 162.38 340.36 177.69 348.64 191.57 346.84 190.49 307.93 190.12 254.6 194.81 214.23 206.69 245.22 217.15 293.51 221.84 334.6 218.6 346.48 229.41 348.64 250.3 344.33 247.41 337.11 239.86 333.52 238.05 290.27 230.84 211.35 236.51 207.76 240.94 194.07 247.06 192.62 248.12 175.4 230.64 175.4 160.75 175.4"></polygon>
            <polygon id="Path" fill="#000000" fill-rule="nonzero" points="177.16 59.3 177.16 80.92 209.22 72.62 214.26 54.62 203.1 36.59 185.45 38.75"></polygon>
            <polygon id="Path" fill="#000000" fill-rule="nonzero" points="177.16 80.92 180.33 86.79 185.74 87.61 186.22 84.5"></polygon>
            <polygon id="Path" fill="#000000" fill-rule="nonzero" points="177.16 80.92 186.22 84.5 198.51 84.5 209.22 72.62"></polygon>
            <polygon id="Path" fill="#000000" fill-rule="nonzero" points="186.22 84.5 185.74 87.61 195.7 89.12 199.36 88.3 198.51 84.5"></polygon>
            <polygon id="Path" fill="#000000" fill-rule="nonzero" points="209.22 72.62 198.51 84.5 199.36 88.3 206.09 86.79 217.5 76.29"></polygon>
            <polygon id="Path" fill="#000000" fill-rule="nonzero" points="234.54 118.23 230.64 175.4 246.1 118.23"></polygon>
            <polygon id="Path" fill="#000000" fill-rule="nonzero" points="246.1 118.23 230.64 175.4 248.12 175.4 250.3 140.01"></polygon>
            <path d="M595.28,120.89 L595.37,120.66 L595.3,88.44 L595.3,75.67 L595.3,31.37 L0.05,263.79 L0.05,371.69 L39.74,371.69 L52.45,371.69 L52.45,371.69 L66.86,371.69 L66.81,371.63 L104.35,371.63 C104.35,371.69 104.35,371.74 104.35,371.8 L136.73,371.72 L199.73,371.72 C199.73,371.67 199.73,371.61 199.73,371.56 L209.29,371.56 L209.57,371.56 L303.43,371.48 L411.97,371.25 L595.36,371.32 L595.36,120.89 L595.28,120.89 Z" id="Path" fill="#86D0F5" fill-rule="nonzero"></path>
            <polygon id="Path" fill="#64B7D8" fill-rule="nonzero" points="595.31 257.43 595.32 371.23 411.93 371.16 303.39 371.39"></polygon>
            <polygon id="Path" fill="#E9E9E9" fill-rule="nonzero" points="209.21 371.47 199.65 371.49 199.64 371.48"></polygon>
            <path d="M433.82,126.55 C437.29,130.62 435.23,135.82 429.21,138.17 C423.19,140.52 415.51,139.17 412.03,135.06 C408.55,130.95 410.62,125.79 416.64,123.44 C422.66,121.09 430.34,122.49 433.82,126.55 Z" id="Path" fill="#56A8C1" fill-rule="nonzero"></path>
            <path d="M312.34,173.58 C315.81,177.65 313.75,182.85 307.73,185.2 C301.71,187.55 294.03,186.2 290.55,182.09 C287.07,177.98 289.14,172.82 295.16,170.47 C301.18,168.12 308.86,169.52 312.34,173.58 Z" id="Path" fill="#56A8C1" fill-rule="nonzero"></path>
            <polygon id="Path" fill="#56A8C1" fill-rule="nonzero" points="595.3 88.44 595.28 75.67 545.99 65.99 527.19 113.43 595.28 125.77 595.37 120.66 595.37 120.66"></polygon>
            <polygon id="Path" fill="#56A8C1" fill-rule="nonzero" points="523.01 132.11 504.2 179.55 574.38 192.27 593.18 144.82"></polygon>
            <path d="M549.89,222.41 C535.32,205.35 503.06,199.51 477.83,209.41 C452.6,219.31 443.95,241.07 458.52,258.13 C473.09,275.19 505.35,281.04 530.58,271.19 C555.81,261.34 564.46,239.47 549.89,222.41 Z M522.05,250.62 L481.54,250.62 L486.32,246.18 L472.53,242.62 L524.05,241.73 L517.29,243.39 L534.19,244.72 L510.54,247.57 L522.05,250.62 Z M495.05,235.39 L508.05,233.11 L482.99,229.88 L528.61,229.88 L535.93,235.39 L495.05,235.39 Z" id="Shape" fill="#56A8C1" fill-rule="nonzero"></path>
            <polygon id="Path" fill="#56A8C1" fill-rule="nonzero" points="535.88 235.39 495.05 235.39 508 233.11 482.94 229.88 528.56 229.88"></polygon>
            <polygon id="Path" fill="#56A8C1" fill-rule="nonzero" points="534.19 244.72 510.54 247.57 522.08 250.62 487.45 250.62 481.54 250.62 486.32 246.18 472.53 242.62 524.05 241.73 517.29 243.39"></polygon>
            <path d="M487.36,117.56 C482.36,111.68 471.22,109.67 462.53,113.06 C453.84,116.45 450.85,123.97 455.87,129.85 C460.89,135.73 472.01,137.75 480.71,134.35 C489.41,130.95 492.38,123.44 487.36,117.56 Z" id="Path" fill="#56A8C1" fill-rule="nonzero"></path>
            <path d="M480.4,162.3 C471.17,151.48 450.71,147.78 434.72,154.02 C418.73,160.26 413.24,174.09 422.48,184.91 C431.72,195.73 452.17,199.43 468.16,193.19 C484.15,186.95 489.64,173.11 480.4,162.3 Z" id="Path" fill="#56A8C1" fill-rule="nonzero"></path>
            <path d="M458.28,276.11 C450.35,266.84 432.81,263.66 419.09,269.01 C405.37,274.36 400.67,286.23 408.58,295.51 C416.49,304.79 434.05,307.97 447.78,302.61 C461.51,297.25 466.21,285.39 458.28,276.11 Z" id="Path" fill="#56A8C1" fill-rule="nonzero"></path>
            <path d="M392.42,153.63 C383.18,142.82 362.73,139.11 346.73,145.36 C330.73,151.61 325.25,165.43 334.49,176.25 C343.73,187.07 364.18,190.77 380.18,184.52 C396.18,178.27 401.65,164.45 392.42,153.63 Z" id="Path" fill="#56A8C1" fill-rule="nonzero"></path>
            <polygon id="Path" fill="#56A8C1" fill-rule="nonzero" points="432.76 241.38 428.14 246.31 412.85 249.36 410.55 245.85 415.29 241.38 412.24 236.93 404.65 238.93 400.39 242.8 391.71 246.78 387.2 242.09 391.71 235.15 402.13 229.81 415.29 228.48 425.71 234.48"></polygon>
            <polygon id="Path" fill="#56A8C1" fill-rule="nonzero" points="408.35 207.88 408.35 218.24 396.98 225.1 388.46 222.96 388.87 215.49 387.65 210.26 375.07 209.25 364.01 215.22 357.62 210.28 361.27 207.88 373.44 199.85 387.65 199.85"></polygon>
            <polygon id="Path" fill="#56A8C1" fill-rule="nonzero" points="381.75 228.01 382.98 234.14 375.37 238.17 367.75 236.78 366.52 230.66 362.3 227.74 353.14 228.57 344.1 231.5 345.74 240.81 343.01 243.59 334.62 241.23 329.69 235.25 338.33 224.68 345.32 222.17 358.29 218.97 367.96 220.57"></polygon>
            <polygon id="Path" fill="#56A8C1" fill-rule="nonzero" points="319.42 289.97 303.79 329.38 362.1 339.95 377.72 300.53"></polygon>
            <polygon id="Path" fill="#56A8C1" fill-rule="nonzero" points="246.97 191.85 228.17 239.3 298.34 252.01 317.15 204.56"></polygon>
            <path d="M297.59,332.27 C289.59,322.96 272.04,319.77 258.27,325.15 C244.5,330.53 239.79,342.42 247.74,351.73 C255.69,361.04 273.29,364.22 287.05,358.85 C300.81,353.48 305.53,341.58 297.59,332.27 Z" id="Path" fill="#56A8C1" fill-rule="nonzero"></path>
            <polygon id="Path" fill="#56A8C1" fill-rule="nonzero" points="268.1 270.59 267.44 278.4 261.81 279.88 208.44 273.81 201.81 266.97 204.31 262.68 210.16 258.6 236.29 260.05 257.49 263.9"></polygon>
            <polygon id="Path" fill="#56A8C1" fill-rule="nonzero" points="248.68 290.23 253.84 295.56 249.41 299.87 239.98 299.46 191.5 294.78 186.7 291.45 185.72 287.61 190.38 283.11 199.83 280.31 212.97 282.94 240.21 289.16"></polygon>
            <polygon id="Path" fill="#56A8C1" fill-rule="nonzero" points="243.74 308.58 245.09 313.88 243.36 317.3 239.15 319.63 230.5 323.25 189.37 315.65 182.37 313.69 181.79 310.27 187 303.89 195.85 300.88 235.58 307.45"></polygon>
            <path d="M199,224.99 C191.05,215.68 173.45,212.49 159.68,217.87 C145.91,223.25 141.2,235.14 149.15,244.45 C157.1,253.76 174.7,256.94 188.46,251.57 C202.22,246.2 206.94,234.3 199,224.99 Z" id="Path" fill="#56A8C1" fill-rule="nonzero"></path>
            <path d="M213.65,371.47 C212.91813,365.857172 210.505867,360.596906 206.73,356.38 C192.16,339.32 159.89,333.47 134.66,343.32 C118.97,349.45 109.66,360.2 108.43,371.56 C108.43,371.62 108.43,371.67 108.43,371.73 L140.81,371.65 L203.81,371.65 C203.81,371.6 203.81,371.54 203.81,371.49 L213.65,371.49 L213.65,371.47 Z" id="Path" fill="#56A8C1" fill-rule="nonzero"></path>
            <path d="M95.33,268.95 C84.82,256.63 61.52,252.42 43.33,259.53 C25.14,266.64 18.86,282.39 29.38,294.7 C39.9,307.01 63.19,311.24 81.38,304.13 C99.57,297.02 105.85,281.27 95.33,268.95 Z M40.05,285.63 L69.5,285.63 L60.15,287.28 L78.24,289.61 L45.31,289.61 L40.05,285.63 Z M48.59,281.05 L53.46,279.86 L41.27,278.86 L58.32,276.79 L49.99,274.59 L79.25,274.59 L75.8,277.8 L85.8,280.36 L48.59,281.05 Z" id="Shape" fill="#56A8C1" fill-rule="nonzero"></path>
            <polygon id="Path" fill="#56A8C1" fill-rule="nonzero" points="85.75 280.41 48.56 281.05 53.43 279.86 41.24 278.89 58.31 276.83 49.98 274.63 74.98 274.63 79.25 274.63 75.8 277.85"></polygon>
            <polygon id="Path" fill="#56A8C1" fill-rule="nonzero" points="78.24 289.61 45.3 289.61 40.02 285.63 69.5 285.63 60.15 287.28"></polygon>
            <polygon id="Path" fill="#56A8C1" fill-rule="nonzero" points="4.16 293.44 4.16 310.29 4.16 324.78 4.16 334.51 30.46 324.24"></polygon>
            <polygon id="Path" fill="#56A8C1" fill-rule="nonzero" points="70.94 371.65 70.89 371.59 39.65 335 4.19 348.84 4.22 358.55 4.16 358.58 4.16 371.65 43.85 371.62 56.56 371.65 56.53 371.62"></polygon>
            <path d="M430.74,120.42 C434.21,124.49 432.15,129.69 426.13,132.04 C420.11,134.39 412.43,133.04 408.95,128.93 C405.47,124.82 407.54,119.66 413.56,117.31 C419.58,114.96 427.26,116.36 430.74,120.42 Z" id="Path" fill="#EFDF6C" fill-rule="nonzero"></path>
            <path d="M305.71,275.06 C309.18,279.13 307.12,284.33 301.1,286.68 C295.08,289.03 287.4,287.68 283.92,283.57 C280.44,279.46 282.51,274.3 288.53,271.95 C294.55,269.6 302.23,271 305.71,275.06 Z" id="Path" fill="#56A8C1" fill-rule="nonzero"></path>
            <path d="M302.63,268.93 C306.1,273 304.04,278.2 298.02,280.55 C292,282.9 284.32,281.55 280.84,277.44 C277.36,273.33 279.43,268.17 285.45,265.82 C291.47,263.47 299.15,264.87 302.63,268.93 Z" id="Path" fill="#EFDF6C" fill-rule="nonzero"></path>
            <polygon id="Path" fill="#EFDF6C" fill-rule="nonzero" points="595.35 81.01 595.33 68.24 541.88 58.56 523.08 106 593.25 118.72 595.33 113.46 595.42 113.23"></polygon>
            <polygon id="Path" fill="#C7EFFF" fill-rule="nonzero" points="518.9 124.68 500.09 172.12 570.27 184.84 589.07 137.39"></polygon>
            <path d="M545.78,214.98 C531.21,197.92 498.95,192.08 473.72,201.98 C448.49,211.88 439.84,233.64 454.41,250.7 C468.98,267.76 501.24,273.61 526.47,263.76 C551.7,253.91 560.35,232.04 545.78,214.98 Z M517.97,243.19 L477.43,243.19 L482.21,238.75 L468.42,235.19 L519.94,234.3 L513.18,235.96 L530.05,237.29 L506.4,240.14 L517.97,243.19 Z M490.97,227.96 L503.97,225.68 L478.91,222.45 L524.45,222.45 L531.77,227.96 L490.94,227.96 L490.97,227.96 Z" id="Shape" fill="#EFDF6C" fill-rule="nonzero"></path>
            <polygon id="Path" fill="#F9F5CD" fill-rule="nonzero" points="531.77 227.96 490.94 227.96 503.89 225.68 478.83 222.45 524.45 222.45"></polygon>
            <polygon id="Path" fill="#F9F5CD" fill-rule="nonzero" points="530.08 237.29 506.43 240.14 517.97 243.19 483.34 243.19 477.43 243.19 482.21 238.75 468.42 235.19 519.94 234.3 513.18 235.96"></polygon>
            <path d="M483.25,110.13 C478.25,104.25 467.11,102.24 458.42,105.63 C449.73,109.02 446.74,116.54 451.76,122.42 C456.78,128.3 467.9,130.32 476.6,126.92 C485.3,123.52 488.27,116.01 483.25,110.13 Z" id="Path" fill="#C7EFFF" fill-rule="nonzero"></path>
            <path d="M476.29,154.87 C467.06,144.05 446.6,140.35 430.61,146.59 C414.62,152.83 409.13,166.66 418.37,177.48 C427.61,188.3 448.05,192 464.05,185.79 C480.05,179.58 485.53,165.68 476.29,154.87 Z" id="Path" fill="#F9F5CD" fill-rule="nonzero"></path>
            <path d="M454.18,268.7 C446.25,259.43 428.71,256.25 414.99,261.6 C401.27,266.95 396.57,278.82 404.48,288.1 C412.39,297.38 429.95,300.56 443.68,295.2 C457.41,289.84 462.11,277.99 454.18,268.7 Z" id="Path" fill="#F9F5CD" fill-rule="nonzero"></path>
            <path d="M388.31,146.2 C379.07,135.39 358.62,131.68 342.62,137.93 C326.62,144.18 321.14,158 330.38,168.79 C339.62,179.58 360.05,183.34 376.05,177.09 C392.05,170.84 397.54,157.02 388.31,146.2 Z" id="Path" fill="#64B7D8" fill-rule="nonzero"></path>
            <polygon id="Path" fill="#EFDF6C" fill-rule="nonzero" points="428.96 234.52 424.34 239.44 409.05 242.49 406.75 238.98 411.49 234.52 408.44 230.06 400.85 232.06 396.59 235.93 387.91 239.91 383.4 235.23 387.91 228.28 398.33 222.94 411.49 221.62 421.91 227.61"></polygon>
            <polygon id="Path" fill="#EFDF6C" fill-rule="nonzero" points="404.55 201.01 404.55 211.37 393.18 218.24 384.66 216.09 385.07 208.63 383.85 203.39 371.27 202.39 360.21 208.36 353.82 203.41 357.47 201.01 369.64 192.99 383.85 192.99"></polygon>
            <polygon id="Path" fill="#EFDF6C" fill-rule="nonzero" points="377.95 221.15 379.18 227.27 371.57 231.3 363.95 229.91 362.72 223.79 358.5 220.87 349.34 221.7 340.3 224.63 341.94 233.94 339.21 236.73 330.82 234.36 325.89 228.38 334.53 217.81 341.52 215.31 354.49 212.11 364.16 213.71"></polygon>
            <polygon id="Path" fill="#C7EFFF" fill-rule="nonzero" points="316 283.79 300.37 323.21 358.68 333.78 374.3 294.35"></polygon>
            <polygon id="Path" fill="#64B7D8" fill-rule="nonzero" points="242.86 184.42 224.06 231.87 294.23 244.58 313.04 197.13"></polygon>
            <path d="M293.48,324.79 C285.48,315.48 267.93,312.29 254.16,317.67 C240.39,323.05 235.68,334.94 243.63,344.25 C251.58,353.56 269.18,356.74 282.94,351.37 C296.7,346 301.42,334.15 293.48,324.79 Z" id="Path" fill="#F9F5CD" fill-rule="nonzero"></path>
            <polygon id="Path" fill="#EFDF6C" fill-rule="nonzero" points="264.54 264.16 263.88 271.97 258.25 273.45 204.88 267.38 198.25 260.55 200.75 256.25 206.6 252.17 232.74 253.62 253.93 257.47"></polygon>
            <polygon id="Path" fill="#EFDF6C" fill-rule="nonzero" points="245.12 283.8 250.29 289.13 245.85 293.44 236.42 293.03 187.94 288.35 183.14 285.02 182.16 281.18 186.82 276.68 196.27 273.88 209.41 276.51 236.65 282.73"></polygon>
            <polygon id="Path" fill="#EFDF6C" fill-rule="nonzero" points="240.18 302.15 241.53 307.45 239.8 310.87 235.59 313.2 226.94 316.82 185.82 309.22 178.81 307.26 178.24 303.84 183.44 297.46 192.29 294.45 232.02 301.02"></polygon>
            <path d="M194.89,217.56 C186.94,208.25 169.34,205.06 155.57,210.44 C141.8,215.82 137.05,227.71 145.05,237.02 C153.05,246.33 170.6,249.51 184.36,244.14 C198.12,238.77 202.83,226.87 194.89,217.56 Z" id="Path" fill="#F9F5CD" fill-rule="nonzero"></path>
            <path d="M209.54,364.04 C208.80813,358.427172 206.395867,353.166906 202.62,348.95 C188.05,331.89 155.78,326.04 130.55,335.89 C114.86,342.02 105.55,352.77 104.32,364.13 C104.32,364.19 104.32,364.24 104.32,364.3 L136.7,364.22 L199.7,364.22 C199.7,364.17 199.7,364.11 199.7,364.06 L209.54,364.06 L209.54,364.04 Z" id="Path" fill="#64B7D8" fill-rule="nonzero"></path>
            <path d="M92.36,263.59 C81.85,251.27 58.55,247.06 40.36,254.17 C22.17,261.28 15.91,277.02 26.42,289.34 C36.93,301.66 60.23,305.88 78.42,298.77 C96.61,291.66 102.88,275.91 92.36,263.59 Z M37.05,280.27 L66.53,280.27 L57.18,281.92 L75.27,284.25 L42.34,284.25 L37.05,280.27 Z M45.59,275.69 L50.46,274.5 L38.27,273.5 L55.34,271.44 L47.05,269.27 L76.28,269.27 L72.83,272.48 L82.83,275.04 L45.59,275.69 Z" id="Shape" fill="#C7EFFF" fill-rule="nonzero"></path>
            <polygon id="Path" fill="#64B7D8" fill-rule="nonzero" points="82.78 275.04 45.59 275.69 50.47 274.5 38.27 273.53 55.34 271.47 47.01 269.27 72.01 269.27 76.28 269.27 72.83 272.48"></polygon>
            <polygon id="Path" fill="#64B7D8" fill-rule="nonzero" points="75.27 284.25 42.34 284.25 37.05 280.26 66.53 280.26 57.18 281.92"></polygon>
            <polygon id="Path" fill="#F9F5CD" fill-rule="nonzero" points="0.05 286.01 0.05 302.86 0.05 317.35 0.05 327.08 26.35 316.81"></polygon>
            <polygon id="Path" fill="#C7EFFF" fill-rule="nonzero" points="66.83 364.22 66.78 364.16 35.54 327.57 0.08 341.41 0.11 351.12 0.05 351.15 0.05 364.22 39.74 364.19 52.45 364.22 52.42 364.19"></polygon>
            <polygon id="Path" fill="#000000" fill-rule="nonzero" points="515.3 314.41 506.22 356.31 504.18 371.73 595.32 371.23 595.28 201.5 581.86 198.81 584.4 161.13 569.23 136.66 545.25 139.6 530.03 162.18 533.99 196.86 506.59 203.22 485.05 271.25 499.74 290.83"></polygon>
            <polygon id="Path" fill="#000000" fill-rule="nonzero" points="72.49 57.59 80.38 57.59 89.27 64.42 95.81 77.39 93.72 98.42 86.82 104.96 107.84 117.07 121.66 137.12 123.79 149.78 138.44 189.91 123.79 204.67 124.27 215.34 55.82 241.98 54.11 236.78 40.36 233.69 37 211.39 37 170.44 37 124.86 58.41 104.89 55.82 87.96 61.32 64.42"></polygon>
            <path d="M120.05,169.25 C115.05,163.37 103.91,161.36 95.22,164.75 C86.53,168.14 83.54,175.66 88.56,181.54 C93.58,187.42 104.7,189.44 113.4,186.04 C122.1,182.64 125.05,175.13 120.05,169.25 Z" id="Path" fill="#C7EFFF" fill-rule="nonzero"></path>
            <polygon id="Path" fill="#000000" fill-rule="nonzero" points="73.35 170.03 92.74 178.84 92.74 181.49 88.55 181.54 104.3 181.54 105.66 185.6 96.56 196.17"></polygon>
            <path d="M308.23,166.15 C306.23,163.8 302.8,162.35 299.11,161.99 L299.11,170.19 C299.11,170.67 296.21,170.19 296.21,170.19 L296.21,161.94 C294.443236,162.035905 292.702275,162.40704 291.05,163.04 C285.05,165.39 282.97,170.59 286.44,174.66 C289.91,178.73 297.61,180.12 303.62,177.77 C309.63,175.42 311.7,170.22 308.23,166.15 Z" id="Path" fill="#E5E1C1" fill-rule="nonzero"></path>
            <path d="M299.11,170.19 L299.11,154.19 L307.53,151 L309.85,147.39 L309.85,132.79 L302.11,129.06 L296.95,127.79 L290.24,129.08 L284.05,132.79 L284.05,146.09 L288.44,151.51 L296.21,154.03 L296.21,170.19 C296.21,170.19 299.11,170.67 299.11,170.19 Z M289.87,148.95 L286.87,144.5 L286.87,137.58 L293.98,135.64 L300.51,135.64 L307.33,137.58 L307.33,145.79 L305.93,148.45 L299.11,151.3 L296.21,151.3 L289.87,148.95 Z" id="Shape" fill="#F9F5CD" fill-rule="nonzero"></path>
            <polygon id="Path" fill="#991918" fill-rule="nonzero" points="305.93 148.41 307.33 145.75 307.33 137.57 300.51 135.64 293.98 135.64 286.86 137.57 286.86 144.49 289.86 148.94 296.2 151.27 299.11 151.27"></polygon>
            <polygon id="Path" fill="#C7EFFF" fill-rule="nonzero" points="485.05 61.94 497.73 58.56 512.52 61.94 508.71 99.97 501.11 102.92 489.7 99.12"></polygon>
            <polygon id="Path" fill="#64B7D8" fill-rule="nonzero" points="489.53 69.39 492.42 95.87 500.45 98.5 506.1 96.24 508.73 69.39 499.47 67"></polygon>
            <polygon id="Path" points="384.55 270.1 385.4 270.4 385.4 269.15 385.4 268.35 383.49 267.21 383.36 269.66"></polygon>
            <polygon id="Path" fill="#E5E1C1" fill-rule="nonzero" points="381.18 270.6 382.22 270.97 383.52 271.44 385.4 272.12 385.4 270.4 384.55 270.1 383.36 269.66 383.49 267.21 381.81 266.2 382.26 263.52 383.29 262.17 383.5 262.3 383.5 255.29 382.19 259.97 381.87 261.11 373.49 265.54 358.59 265.54 347.88 261.34 347.2 259.55 347.18 259.55 345.55 255.29 345.55 269.03 349.73 275.31 358.82 280.44 368.14 280.44 376.06 280.44 378.42 277.56 380.87 274.56 381.56 273.72 381.18 273.56"></polygon>
            <polygon id="Path" fill="#F9F5CD" fill-rule="nonzero" points="347.2 259.55 352.77 256.84 356.35 255.29 357.96 254.59 365.11 253.81 372.33 254.82 373.54 255.29 379.55 257.61 382.19 259.97 383.5 255.29 376.06 249.7 364.64 246.91 355.29 249.24 345.55 255.29 347.18 259.55"></polygon>
            <polygon id="Path" fill="#473F3D" fill-rule="nonzero" points="373.54 255.29 372.33 254.82 365.11 253.81 357.96 254.59 356.35 255.29 352.77 256.84 347.2 259.55 347.88 261.34 358.59 265.54 373.49 265.54 381.87 261.11 382.19 259.97 379.55 257.61"></polygon>
            <polygon id="Path" fill="#E5E1C1" fill-rule="nonzero" points="387.55 266.74 387.55 272.21 387.55 274.47 387.55 276.25 388.58 274.9 388.58 270.86 388.58 265.4"></polygon>
            <polygon id="Path" fill="#F9F5CD" fill-rule="nonzero" points="387.55 272.21 387.55 266.74 388.58 265.4 386.58 264.18 383.5 262.3 383.29 262.17 382.26 263.52 381.81 266.2 383.49 267.21 385.4 268.35 385.4 269.15 385.4 270.4 385.4 272.12 383.52 271.44 382.22 270.97 381.18 270.6 381.18 273.56 381.56 273.72 381.63 273.75 387.55 276.25 387.55 274.47"></polygon>
            <path d="M115.23,262.38 L115.23,320.04 L124.3,324.57 L137.9,324.57 L150.49,323.06 L154.77,318.28 L154.77,262.38 L143.44,258.6 L128.84,258.6 L115.23,262.38 Z M117.15,278.38 L119.04,274.51 L123.48,275.27 L126.6,272.63 L133.97,272.63 L142.56,272.82 L148.56,272.06 L152.15,274.99 L152.15,279.33 L149.51,280.46 L149.51,315.59 L145.73,316.23 L145.73,291.03 L142.33,292.16 L142.33,316.79 L136.92,317.71 L136.92,291.27 L133.21,291.27 L133.21,318.05 L127.48,316.94 L127.48,292.72 L123.77,291.96 L123.77,316.22 L120.43,315.57 L120.43,281.39 L117.15,278.38 Z" id="Shape" fill="#F9F5CD" fill-rule="nonzero"></path>
            <polygon id="Path" fill="#EFDF6C" fill-rule="nonzero" points="139.91 283.65 149.54 280.44 149.54 315.57 145.76 316.21 145.76 291.02 142.36 292.15 142.36 316.8 136.95 317.72 136.95 291.27 133.24 291.27 133.24 318.05 127.51 316.94 127.51 292.72 123.79 291.96 123.79 316.22 120.46 315.57 120.46 281.39 128.96 283.65"></polygon>
            <polygon id="Path" fill="#FFFFFF" fill-rule="nonzero" points="123.48 275.25 126.59 272.6 133.96 272.6 142.55 272.79 148.6 272.04 152.19 274.96 152.19 279.31 149.54 280.44 139.91 283.65 128.96 283.65 120.46 281.39 117.15 278.37 119.04 274.49"></polygon>
            <polygon id="Path" fill="#E5E1C1" fill-rule="nonzero" points="152.99 282.94 164.97 287.68 164.97 309.34 152.19 311.35 152.19 305.18 159.43 303.67 159.43 292.47 153 289.44"></polygon>
            <polygon id="Path" fill="#000000" fill-rule="nonzero" points="386.94 70.97 377.68 62.14 367.97 57.55 373.06 46.91 377.68 33.96 374.45 21.43 360.36 17.25 349.05 18.89 342.06 39.24 345.3 54.31 334.11 58.71 318.72 67.05 315.26 85.44 309.75 111.44 321.87 137.97 321.87 137.97 329.8 134.96 336.31 145.25 345.85 159.72 352.4 159.05 361.36 163.91 363.37 156.58 344.1 129.29 369.76 119.28 389.65 111.51 388.92 104.54 390.64 89.31"></polygon>
        </g>
    </g>
</svg>