
<svg width="596px" height="373px" viewBox="0 0 596 373" version="1.1" xmlns="http://www.w3.org/2000/svg" xmlns:xlink="http://www.w3.org/1999/xlink">
    <g id="Page-1" stroke="none" stroke-width="1" fill="none" fill-rule="evenodd">
        <g id="5" fill-rule="nonzero">
            <polygon id="Path" fill="#3B692B" points="0.45 0 595.73 0 595.73 124.14 0.45 124.14"></polygon>
            <polygon id="Path" fill="#013A2C" points="129.41 0 344.48 0 344.48 124.14 129.41 124.14"></polygon>
            <path d="M564.8,0 L595.95,0 L595.95,99.16 L564.8,99.16 L564.8,0 Z M0,0.57 L70.94,0.57 L70.94,99.16 L0,99.16 L0,0.57 Z M401.53,0 L536.34,0 L536.34,99.16 L401.53,99.16 L401.53,0 Z" id="Shape" fill="#C7EFFF"></path>
            <polygon id="Path" fill="#BC5317" points="0.45 124.14 595.73 124.14 595.73 173.74 0.45 173.74"></polygon>
            <polygon id="Path" fill="#DA6915" points="0.45 173.69 595.73 173.69 595.73 223.29 0.45 223.29"></polygon>
            <polygon id="Path" fill="#F08323" points="0.45 223.25 595.73 223.25 595.73 272.85 0.45 272.85"></polygon>
            <polygon id="Path" fill="#F59F49" points="0.45 271.49 595.73 271.49 595.73 372.18 0.45 372.18"></polygon>
            <path d="M536.56,6.05 L522.29,9.54 L510.42,13.73 L493.19,16.29 L482.01,21.39 L477.82,25.14 L466.06,27.24 L470.13,33.29 L482.24,35.16 L500.17,35.16 L516.88,32.83 L528.35,35.16 L536.56,35.16 L536.56,6.05 L536.56,6.05 Z M448.93,67.38 L463.72,71.74 L479.84,71.74 L494.72,66.04 L498.44,56.92 L494.72,53.14 L475.63,55.13 L464.23,53.86 L453.57,53.14 L447.11,57.67 L448.93,67.38 L448.93,67.38 Z M564.8,34 L565.04,34.03 L581.72,35.16 L591.83,28.07 L588.98,12.88 L565.83,6.05 L564.8,6.05 L564.8,34 Z M70.94,32.72 L59.48,33.89 L40.26,24.12 L18.83,19.4 L4.1,22.23 L0.45,24.28 L0.45,52.5 L6.85,54.06 L27.34,49.83 L50.66,54.06 L70.94,54.06 L70.94,32.72 Z" id="Shape" fill="#FFFFFF"></path>
            <polygon id="Path" fill="#A33C0F" points="120.34 144.7 234.17 145.26 200.4 153.85 210.41 163.72 120.83 163.72 140.35 158.25 117.97 150.48 130.39 147.92"></polygon>
            <path d="M236.95,22.88 L322.25,22.88 L322.25,27.38 L236.95,27.38 L236.95,22.88 Z M236.95,42.78 L322.25,42.78 L322.25,47.28 L236.95,47.28 L236.95,42.78 Z M236.95,62.68 L322.25,62.68 L322.25,67.18 L236.95,67.18 L236.95,62.68 Z" id="Shape" fill="#567C72"></path>
            <polygon id="Path" fill="#3F52AC" points="191.46 34.17 197.72 37.36 194.84 46.64 189.27 45.31 194.15 76.5 191.13 82.04 158.31 57.55 158.67 52.94 150.4 51.65 152.44 41.06 159.17 32.04 163.02 30.34 169.93 34.78 176.83 35.34 184.33 32.52"></polygon>
            <polygon id="Path" fill="#3F52AC" points="191.13 82.04 176.41 82.86 158.67 82.86 157.69 65.61 158.31 57.55"></polygon>
            <path d="M191.13,82.04 L189.16,88.6 L186.21,110.4 L187.53,120.4 L185.23,146.79 L188.67,148.43 L189,150.07 L182.03,153.84 L175.72,153.02 L176.21,135.32 L176.38,111.06 L174.25,92.7 L168.84,106.79 L164.08,128.76 L161.95,147.45 L163.43,152.86 L158.51,153.84 L149,151.87 L150.31,148.6 L153.76,146.96 L154.58,127.29 L157.85,91.39 L155.28,89.75 L153.26,83.52 L150.48,82.86 L149,58.93 L150.4,51.65 L158.31,57.55 L157.69,65.61 L158.67,82.86 L176.41,82.86 L191.13,82.04 Z M182.28,32.04 L184.33,32.52 L163.02,30.34 L167.69,28.27 L165.4,20.08 L170.48,11.88 L178.51,12.86 L182.28,22.21 L182.28,32.04 L182.28,32.04 Z" id="Shape" fill="#000000"></path>
            <path d="M186,55.0022886 C186,56.4854657 183.936201,57.8953994 180.776804,58.7697411 C181.515695,61.6720074 181.194659,63.9837491 179.762739,64.7253377 C179.426417,64.8992903 179.039136,64.9816891 178.611089,64.9816891 C177.209743,64.9816891 175.375255,64.0936143 173.520383,62.5463491 C171.665512,64.1027697 169.831023,65 168.429678,65 C168.001631,65 167.61435,64.9176011 167.283122,64.7436486 C165.846107,64.00206 165.519976,61.6857406 166.253771,58.7743189 C163.073991,57.8999771 161,56.4900434 161,55.0022886 C161,53.519112 163.063799,52.113756 166.233387,51.2348366 C165.494496,48.3325703 165.815532,46.0208286 167.247452,45.27924 C167.583775,45.1052874 167.971056,45.0228886 168.399103,45.0228886 L168.399103,46.0437171 C168.164696,46.0437171 167.96596,46.0803389 167.813086,46.1627377 C167.125153,46.5243766 166.829596,47.8839549 167.069099,49.6326389 C167.130249,50.0583657 167.216878,50.5024034 167.334081,50.9601737 C168.332858,50.7358663 169.423359,50.5664914 170.57501,50.4566263 C171.252752,49.6097503 171.966164,48.8452737 172.679576,48.1723509 C171.018345,46.7944611 169.453934,46.0391394 168.399103,46.0391394 L168.399103,45.0183109 C169.800448,45.0183109 171.634937,45.9063857 173.489808,47.4536509 C175.34468,45.8972303 177.179168,45 178.580514,45 L178.580514,46.0208286 C177.520587,46.0208286 175.961272,46.780728 174.300041,48.1677731 C175.018549,48.840696 175.731961,49.6097503 176.419894,50.4566263 C177.566449,50.5664914 178.656951,50.7358663 179.655728,50.955596 C179.767835,50.493248 179.85956,50.0400549 179.915614,49.6097503 C180.150021,47.8610669 179.849368,46.501488 179.156339,46.1444269 C178.998369,46.0666057 178.809825,46.0254063 178.575418,46.0254063 L178.575418,45.0045777 C178.998369,45.0045777 179.38565,45.0869766 179.716878,45.2609291 C181.153893,46.0025177 181.480024,48.3188371 180.746229,51.2302589 C183.926009,52.1046006 186,53.5145343 186,55.0022886 Z M179.365267,51.9489589 C178.697717,51.802472 177.999593,51.6834514 177.275989,51.58732 C177.525683,51.9352257 177.775377,52.2922863 178.009784,52.6585029 C178.249287,53.0247194 178.468406,53.390936 178.677334,53.7571526 C178.942316,53.1483177 179.176722,52.5394829 179.365267,51.9489589 Z M177.03139,56.824216 C177.413575,56.2245366 177.765186,55.611124 178.086221,54.9977114 C177.765186,54.3842983 177.413575,53.7754634 177.026294,53.175784 C176.628822,52.5623714 176.216062,51.9810023 175.793111,51.4362554 C175.038932,51.3813229 174.269466,51.3492789 173.5,51.3492789 C172.725438,51.3492789 171.955973,51.3813229 171.196698,51.4408331 C170.773746,51.98558 170.366083,52.5715269 169.96861,53.1895171 C169.586425,53.7891966 169.229719,54.4026091 168.913779,55.0160217 C169.234814,55.6294349 169.586425,56.2382697 169.973706,56.8379491 C170.371178,57.4513617 170.783938,58.0327309 171.206889,58.5774777 C171.961068,58.6324103 172.730534,58.6644543 173.5,58.6644543 C174.274562,58.6644543 175.044027,58.6324103 175.803302,58.5729 C176.226254,58.0281531 176.633917,57.4422063 177.03139,56.824216 Z M178.677334,56.2291143 C178.468406,56.5953309 178.249287,56.9661251 178.01488,57.3323417 C177.780473,57.703136 177.530779,58.0647743 177.281084,58.4172577 C178.009784,58.3211263 178.713004,58.197528 179.380554,58.0510411 C179.186914,57.4559394 178.952507,56.8425269 178.677334,56.2291143 Z M173.510192,61.1135269 C173.979005,60.6740674 174.452915,60.1842526 174.911537,59.6486611 C174.447819,59.6715497 173.973909,59.6807051 173.494904,59.6807051 C173.020995,59.6807051 172.552181,59.666972 172.093559,59.6486611 C172.562373,60.1842526 173.036282,60.6740674 173.510192,61.1135269 Z M169.718916,58.4172577 C169.469221,58.069352 169.224623,57.7122909 168.98512,57.3460749 C168.745618,56.9798583 168.526498,56.6136417 168.317571,56.2474251 C168.052589,56.85626 167.818182,57.4650949 167.629637,58.0556189 C168.297187,58.2021057 168.995312,58.3211263 169.718916,58.4172577 Z M173.484713,48.8910509 C173.015899,49.3305103 172.541989,49.8203251 172.083368,50.3559166 C172.547085,50.333028 173.020995,50.3238726 173.5,50.3238726 C173.973909,50.3238726 174.442723,50.3376057 174.901345,50.3559166 C174.432532,49.8203251 173.958622,49.3305103 173.484713,48.8910509 Z M169.71382,51.58732 C168.98512,51.6834514 168.2819,51.8070497 167.61435,51.9489589 C167.80799,52.5440606 168.042397,53.1574731 168.317571,53.7708857 C168.526498,53.4046691 168.745618,53.0384526 168.980024,52.672236 C169.214431,52.3014417 169.464126,51.9398034 169.71382,51.58732 Z M165.10212,57.3186086 C165.545454,57.4879834 166.02446,57.6436257 166.528944,57.7855343 C166.814309,56.8928817 167.191398,55.9636074 167.660212,55.011444 C167.186303,54.0547034 166.804117,53.1208514 166.513657,52.2236211 C166.019364,52.3655297 165.540359,52.5165943 165.10212,52.6859691 C163.298206,53.3726251 162.131268,54.2835891 162.131268,55.0022886 C162.131268,55.7209886 163.298206,56.6273749 165.10212,57.3186086 Z M167.843661,63.8601509 C167.996535,63.937972 168.190175,63.9791714 168.419486,63.9837491 C169.479413,63.9837491 171.038728,63.2238497 172.699959,61.8368046 C171.981451,61.1638817 171.268039,60.3948274 170.580106,59.5479514 C169.433551,59.4380863 168.343049,59.2687114 167.344272,59.0489817 C167.232165,59.5113297 167.14044,59.9645229 167.084386,60.3948274 C166.849979,62.1435109 167.150632,63.5030897 167.843661,63.8601509 Z M179.930901,60.3719389 C179.874847,59.946212 179.783122,59.5021743 179.665919,59.0398263 C178.667143,59.2641337 177.576641,59.4335086 176.42499,59.5433737 C175.747248,60.3902497 175.033836,61.1547263 174.320424,61.8276491 C175.981655,63.2055389 177.546066,63.9608606 178.600897,63.9608606 C178.835304,63.9608606 179.03404,63.9242389 179.186914,63.84184 C179.874847,63.4802011 180.170404,62.1206223 179.930901,60.3719389 Z M181.892784,57.3186086 C183.696698,56.6319526 184.863636,55.7209886 184.868732,55.0022886 C184.868732,54.2835891 183.701794,53.3772029 181.89788,52.6859691 C181.449449,52.5165943 180.970444,52.360952 180.46596,52.2190434 C180.180595,53.111696 179.803506,54.0409703 179.334693,54.9931337 C179.808602,55.9498743 180.190787,56.8837263 180.481247,57.7809566 C180.97554,57.639048 181.454546,57.4879834 181.892784,57.3186086 Z" id="Shape" fill="#FFFFFF"></path>
            <path d="M158.67,52.94 L158.31,57.55 L150.4,51.65 L158.67,52.94 Z M222.59,47.17 L226.91,52.75 L216.53,51.81 L194.84,46.64 L197.72,37.36 L212.59,44.92 L222.59,47.17 Z M184.33,32.52 L176.83,35.34 L169.93,34.78 L163.02,30.34 L184.33,32.52 Z" id="Shape" fill="#000000"></path>
            <path d="M253.7,295.53 L288.11,331.01 L190.04,331.01 L157.46,295.53 L253.7,295.53 L253.7,295.53 Z M270.65,324.36 L248.13,301.09 L174.36,301.09 L194.82,324.36 L270.65,324.36 L270.65,324.36 Z" id="Shape" fill="#284B56"></path>
            <polygon id="Path" fill="#1E3944" points="248.13 301.04 270.65 324.31 194.82 324.31 174.36 301.04"></polygon>
            <path d="M253.7,238.9 L253.7,295.53 L157.46,295.53 L157.46,238.9 L253.7,238.9 Z M245.11,287.22 L245.11,247.22 L166.11,247.22 L166.11,287.22 L245.11,287.22 Z" id="Shape" fill="#1E3944"></path>
            <polygon id="Path" fill="#577E87" points="166.06 247.21 245.11 247.21 245.11 287.22 166.06 287.22"></polygon>
            <path d="M380.88,192.73 L401.53,214.02 L342.67,214.02 L323.12,192.73 L380.88,192.73 L380.88,192.73 Z M391.05,210 L377.53,196 L333.24,196 L345.52,210 L391.03,210 L391.05,210 Z" id="Shape" fill="#284B56"></path>
            <polygon id="Path" fill="#1E3944" points="377.54 196.03 391.05 209.99 345.54 209.99 333.26 196.03"></polygon>
            <path d="M380.88,158.74 L380.88,192.74 L323.12,192.74 L323.12,158.74 L380.88,158.74 Z M375.72,187.74 L375.72,163.74 L328.24,163.74 L328.24,187.74 L375.68,187.74 L375.72,187.74 Z" id="Shape" fill="#1E3944"></path>
            <polygon id="Path" fill="#577E87" points="328.28 163.72 375.72 163.72 375.72 187.73 328.28 187.73"></polygon>
            <path d="M47.73,188.71 L27.08,210 L85.94,210 L105.49,188.71 L47.73,188.71 Z M37.56,205.98 L51.08,191.98 L95.34,191.98 L83.06,205.98 L37.56,205.98 Z" id="Shape" fill="#284B56"></path>
            <polygon id="Path" fill="#1E3944" points="51.07 192.01 37.56 205.98 83.07 205.98 95.34 192.01"></polygon>
            <path d="M47.73,154.72 L47.73,188.72 L105.49,188.72 L105.49,154.72 L47.73,154.72 Z M52.89,183.72 L52.89,159.72 L100.33,159.72 L100.33,183.72 L52.88,183.72 L52.89,183.72 Z" id="Shape" fill="#1E3944"></path>
            <polygon id="Path" fill="#577E87" points="52.88 159.7 100.32 159.7 100.32 183.71 52.88 183.71"></polygon>
            <path d="M87.12,371.95 L211.51,371.95 L211.51,341.59 L203.79,290.73 L185.38,257.45 L161.18,250.76 L173.81,231.91 L168.05,203.8 L152.59,192.84 L139.12,195.53 L118.3,203.8 L115.38,226.28 L116.42,252.22 L85.58,259.38 L61.35,335.93 L77.87,357.95 L87.12,371.95 L87.12,371.95 Z M227.57,372.35 L243.01,332.55 L240.25,297.28 L273.34,275.74 L267.55,264.99 L267.46,235.3 L277.48,212.04 L308.91,212.04 L318.21,225.19 L320.5,241 L314.43,262.23 L305.61,278.22 L342,286.57 L364.94,304.56 L370.96,326.66 L370.96,371.96 L227.57,372.35 L227.57,372.35 Z M447.53,271.49 L365.46,271.49 L369.19,253.82 L365.46,217.79 L381.81,199.81 L396.96,195.62 L390.19,175.14 L392.25,159.36 L407.85,156.32 L415.82,158.18 L423.81,166.22 L425.63,180.3 L420.81,195.57 L447.53,201.59 L454.99,224.66 L448.55,251.79 L447.53,271.49 L447.53,271.49 Z" id="Shape" fill="#000000"></path>
            <path d="M513.78,304.68 L548.24,340.16 L450.17,340.16 L417.59,304.68 L513.83,304.68 L513.78,304.68 Z M530.78,333.46 L508.24,310.19 L434.44,310.19 L454.9,333.46 L530.73,333.46 L530.78,333.46 Z" id="Shape" fill="#284B56"></path>
            <polygon id="Path" fill="#1E3944" points="508.21 310.19 530.73 333.46 454.9 333.46 434.44 310.19"></polygon>
            <path d="M513.78,248.05 L513.78,304.68 L417.54,304.68 L417.54,248.05 L513.78,248.05 Z M505.24,296.36 L505.24,256.36 L426.24,256.36 L426.24,296.36 L505.24,296.36 Z" id="Shape" fill="#1E3944"></path>
            <polygon id="Path" fill="#577E87" points="426.14 256.36 505.19 256.36 505.19 296.37 426.14 296.37"></polygon>
            <path d="M512.16,372.18 L595.93,372.18 L595.9,264.97 L582.48,262.27 L585.03,224.6 L569.85,200.13 L545.87,203.07 L530.65,225.65 L534.62,260.33 L507.21,266.69 L485.68,334.72 L500.36,354.29 L512.16,372.18 Z M61.35,271.93 L0.45,271.93 L0.47,199.75 L14.07,196 L11.64,169.53 L22.12,158.09 L40.54,161.93 L45.04,183.33 L41.73,196.63 L67,205.14 L70.94,233.16 L63.63,261.88 L61.35,271.93 Z" id="Shape" fill="#000000"></path>
        </g>
    </g>
</svg>