
<svg width="596px" height="373px" viewBox="0 0 596 373" version="1.1" xmlns="http://www.w3.org/2000/svg" xmlns:xlink="http://www.w3.org/1999/xlink">
    <g id="Page-1" stroke="none" stroke-width="1" fill="none" fill-rule="evenodd">
        <g id="6" fill-rule="nonzero">
            <polygon id="Path" fill="#013A2C" points="0 0 595.28 0 595.28 371.39 0 371.39"></polygon>
            <polygon id="Path" fill="#76A031" points="595.28 297.11 132.49 297.11 0 371.39 595.28 371.39"></polygon>
            <polygon id="Path" fill="#608230" points="502.87 222.83 0 222.83 34.8 297.11 595.28 297.11"></polygon>
            <polygon id="Path" fill="#3B692B" points="595.28 148.55 50.75 148.55 0 222.83 595.28 222.83"></polygon>
            <polygon id="Path" fill="#315424" points="526.44 74.28 151.41 74.28 180.48 148.55 553.05 148.55"></polygon>
            <path d="M292.17,222.83 L373.08,222.83 L373.08,203.08 L368.07,169.99 L356.09,148.34 L340.35,143.99 L348.56,131.73 L344.82,113.45 L334.76,106.32 L326,108.07 L312.45,113.45 L310.56,128.07 L311.24,144.94 L291.17,149.6 L275.41,199.39 L286.16,213.72 L292.17,222.83 L292.17,222.83 Z M131.58,148.55 L50.66,148.55 L50.66,128.8 L46.12,104.63 L59.59,78.03 L83.4,69.72 L82.05,55.58 L86.19,39.68 L94.77,32.04 L112.1,32.04 L118.32,40.55 L121.78,58.17 L112.51,70.67 L132.57,75.33 L138.88,111.16 L137.59,139.45 L131.58,148.55 L131.58,148.55 Z" id="Shape" fill="#000000"></path>
            <path d="M285.33,317.58 L319.74,353.06 L221.67,353.06 L189.09,317.58 L285.33,317.58 L285.33,317.58 Z M302.33,346.36 L279.81,323.09 L206.04,323.09 L226.5,346.36 L302.33,346.36 L302.33,346.36 Z" id="Shape" fill="#F08323"></path>
            <path d="M279.76,323.09 L302.28,346.36 L226.45,346.36 L205.99,323.09 L279.76,323.09 Z M285.33,260.95 L285.33,317.58 L189.09,317.58 L189.09,260.95 L285.33,260.95 Z M276.74,309.27 L276.74,269.27 L197.74,269.27 L197.74,309.27 L276.74,309.27 Z" id="Shape" fill="#DA6915"></path>
            <polygon id="Path" fill="#F59F49" points="197.69 269.26 276.74 269.26 276.74 309.27 197.69 309.27"></polygon>
            <path d="M401.15,93.79 L366.74,129.27 L464.81,129.27 L497.39,93.79 L401.15,93.79 L401.15,93.79 Z M384.15,122.57 L406.67,99.3 L480.44,99.3 L459.98,122.57 L384.15,122.57 Z" id="Shape" fill="#013A2C"></path>
            <path d="M406.72,99.28 L384.2,122.55 L460.03,122.55 L480.49,99.28 L406.72,99.28 Z M401.15,37.14 L401.15,93.79 L497.39,93.79 L497.39,37.14 L401.15,37.14 Z M409.74,85.46 L409.74,45.46 L488.74,45.46 L488.74,85.46 L409.74,85.46 Z" id="Shape" fill="#3B692B"></path>
            <polygon id="Path" fill="#76A031" points="409.74 45.45 488.79 45.45 488.79 85.46 409.74 85.46"></polygon>
            <path d="M183.96,51.08 L183.96,116.2 L246.45,74.08 L246.45,10.16 L183.96,51.08 Z M192.07,102.89 L192.07,54.99 L239.77,23.68 L239.77,70.68 L192.07,102.89 Z" id="Shape" fill="#4594D1"></path>
            <path d="M183.96,116.2 L235.4,138.41 L301.66,94 L246.45,74.08 L183.96,116.2 L183.96,116.2 Z M234.31,130.71 L197.54,114.71 L246.45,81.94 L285.64,95.41 L234.31,130.71 L234.31,130.71 Z" id="Shape" fill="#005D9C"></path>
            <polygon id="Path" fill="#C7EFFF" points="192.08 54.98 192.08 102.88 239.78 70.63 239.78 23.67"></polygon>
            <polygon id="Path" fill="#4594D1" points="197.55 114.69 234.32 130.7 285.65 95.39 246.46 81.92"></polygon>
            <polygon id="Path" fill="#991918" points="236.81 191.73 199.19 207.34 199.19 191.73"></polygon>
            <polygon id="Path" fill="#CD181A" points="199.19 191.73 199.19 207.34 92.5 207.34 92.5 137.08 199.19 137.08"></polygon>
            <polygon id="Path" fill="#302E5E" points="300.93 267 338.55 282.61 338.55 267"></polygon>
            <polygon id="Path" fill="#3F52AC" points="338.55 267 338.55 282.61 445.24 282.61 445.24 212.35 338.55 212.35"></polygon>
            <polygon id="Path" fill="#EAC839" points="150.19 286.25 83.5 286.25 83.5 279.07 125.31 279.07 83.5 249.98 83.5 239.31"></polygon>
            <polygon id="Path" fill="#E8AE3A" points="125.31 279.07 83.5 279.07 83.5 249.98"></polygon>
            <polygon id="Path" fill="#F4DB4A" points="83.5 279.07 83.5 286.25 34.8 239.31 34.8 172.21 83.5 223.67"></polygon>
            <polygon id="Path" fill="#000000" points="495.16 148.55 410.35 148.55 414.21 130.3 410.35 93.06 427.25 74.48 442.91 70.16 435.91 48.99 438.04 32.69 454.16 29.55 462.39 31.47 470.64 39.78 472.53 54.32 467.55 70.1 495.16 76.33 502.87 100.16 496.21 128.19"></polygon>
            <path d="M571.23,125.17 L571.23,190.29 L508.74,148.17 L508.74,84.25 L571.23,125.17 Z M563.12,176.98 L563.12,129.08 L515.42,97.79 L515.42,144.79 L563.12,176.98 Z" id="Shape" fill="#64B7D8"></path>
            <path d="M571.23,190.29 L519.79,212.5 L453.57,168.09 L508.78,148.17 L571.23,190.29 L571.23,190.29 Z M520.88,204.79 L557.65,188.79 L508.74,156.02 L469.57,169.49 L520.88,204.79 L520.88,204.79 Z" id="Shape" fill="#64B7D8"></path>
            <polygon id="Path" fill="#86D0F5" points="563.12 129.08 563.12 176.98 515.42 144.73 515.42 97.77"></polygon>
            <polygon id="Path" fill="#3F97B2" points="557.65 188.79 520.88 204.8 469.55 169.49 508.74 156.02"></polygon>
            <path d="M456.61,298.21 L468.29,268.11 L466.2,241.44 L491.23,225.15 L486.85,217.02 L486.78,194.56 L494.36,176.98 L518.13,176.98 L525.16,186.92 L526.89,198.88 L522.3,214.93 L515.63,227.03 L543.15,233.34 L560.5,246.94 L565.05,263.66 L565.05,297.92 L456.61,298.21 L456.61,298.21 Z M168.9,372.66 L173.69,341.51 L167,314.48 L146.28,301.56 L155.14,288.13 L155.2,267.96 L147.63,250.38 L123.85,250.38 L116.82,260.32 L115.09,272.27 L119.09,286.25 L114.93,303.05 L98.83,306.74 L87.06,315.97 L84.95,335.32 L76.93,371.32 L168.9,372.66 L168.9,372.66 Z" id="Shape" fill="#000000"></path>
            <polygon id="Path" fill="#AA6D83" points="455.22 364.03 521.91 364.03 521.91 356.85 480.1 356.85 521.91 327.76 521.91 317.09"></polygon>
            <polygon id="Path" fill="#A0607A" points="480.1 356.85 521.91 356.85 521.91 327.76"></polygon>
            <polygon id="Path" fill="#BC7D91" points="521.91 356.85 521.91 364.03 570.61 317.09 570.61 249.99 521.91 301.45"></polygon>
            <path d="M412,248.504005 C412,251.099565 408.697921,253.566949 403.642886,255.097047 C404.825112,260.176013 404.311455,264.221561 402.020383,265.519341 C401.482267,265.823758 400.862617,265.967956 400.177742,265.967956 C397.935589,265.967956 395.000408,264.413825 392.032613,261.706111 C389.064819,264.429847 386.129637,266 383.887485,266 C383.202609,266 382.58296,265.855802 382.052996,265.551385 C379.753771,264.253605 379.231961,260.200046 380.406033,255.105058 C375.318386,253.57496 372,251.107576 372,248.504005 C372,245.908446 375.302079,243.449073 380.37342,241.910964 C379.191194,236.831998 379.704851,232.78645 381.995923,231.48867 C382.53404,231.184253 383.153689,231.040055 383.838565,231.040055 L383.838565,232.826505 C383.463514,232.826505 383.145536,232.890593 382.900938,233.034791 C381.800245,233.667659 381.327354,236.046921 381.710558,239.107118 C381.808398,239.85214 381.947004,240.629206 382.134529,241.430304 C383.732572,241.037766 385.477375,240.74136 387.320016,240.549096 C388.404403,239.067063 389.545862,237.729229 390.687322,236.551614 C388.029352,234.140307 385.526294,232.818494 383.838565,232.818494 L383.838565,231.032044 C386.080717,231.032044 389.015899,232.586175 391.983693,235.293889 C394.951488,232.570153 397.886669,231 400.128822,231 L400.128822,232.78645 C398.432939,232.78645 395.938035,234.116274 393.280065,236.543603 C394.429678,237.721218 395.571137,239.067063 396.67183,240.549096 C398.506319,240.74136 400.251121,241.037766 401.849164,241.422293 C402.028536,240.613184 402.175296,239.820096 402.264982,239.067063 C402.640033,236.006867 402.158989,233.627604 401.050143,233.002747 C400.797391,232.86656 400.49572,232.794461 400.120669,232.794461 L400.120669,231.008011 C400.797391,231.008011 401.41704,231.152209 401.947004,231.456626 C404.246229,232.754406 404.768039,236.807965 403.593967,241.902953 C408.681614,243.433051 412,245.900435 412,248.504005 Z M401.384427,243.160678 C400.316347,242.904326 399.199348,242.69604 398.041582,242.52781 C398.441093,243.136645 398.840603,243.761501 399.215654,244.40238 C399.598859,245.043259 399.94945,245.684138 400.283734,246.325017 C400.707705,245.259556 401.082756,244.194095 401.384427,243.160678 Z M397.650224,251.692378 C398.26172,250.642939 398.824297,249.569467 399.337954,248.495995 C398.824297,247.422522 398.26172,246.357061 397.642071,245.307622 C397.006115,244.23415 396.345699,243.216754 395.668977,242.263447 C394.462291,242.167315 393.231146,242.111238 392,242.111238 C390.760701,242.111238 389.529556,242.167315 388.314717,242.271458 C387.637994,243.224765 386.985732,244.250172 386.349776,245.331655 C385.73828,246.381094 385.16755,247.454566 384.662046,248.528038 C385.175703,249.601511 385.73828,250.666972 386.357929,251.716411 C386.993885,252.789883 387.654301,253.807279 388.331023,254.760586 C389.537709,254.856718 390.768854,254.912795 392,254.912795 C393.239299,254.912795 394.470444,254.856718 395.685283,254.752575 C396.362006,253.799268 397.014268,252.773861 397.650224,251.692378 Z M400.283734,250.65095 C399.94945,251.291829 399.598859,251.940719 399.223808,252.581598 C398.848757,253.230488 398.449246,253.863355 398.049735,254.480201 C399.215654,254.311971 400.340807,254.095674 401.408887,253.839322 C401.099062,252.797894 400.724011,251.724422 400.283734,250.65095 Z M392.016307,259.198672 C392.766408,258.429618 393.524664,257.572442 394.258459,256.635157 C393.51651,256.675212 392.758255,256.691234 391.991847,256.691234 C391.233592,256.691234 390.48349,256.667201 389.749694,256.635157 C390.499796,257.572442 391.258051,258.429618 392.016307,259.198672 Z M385.950265,254.480201 C385.550754,253.871366 385.159397,253.246509 384.776192,252.605631 C384.392988,251.964752 384.042397,251.323873 383.708113,250.682994 C383.284142,251.748455 382.909091,252.813916 382.607419,253.847333 C383.675499,254.103685 384.792499,254.311971 385.950265,254.480201 Z M391.97554,237.809339 C391.225438,238.578393 390.467183,239.435569 389.733388,240.372854 C390.475336,240.332799 391.233592,240.316777 392,240.316777 C392.758255,240.316777 393.508357,240.34081 394.242152,240.372854 C393.492051,239.435569 392.733795,238.578393 391.97554,237.809339 Z M385.942112,242.52781 C384.776192,242.69604 383.65104,242.912337 382.58296,243.160678 C382.892784,244.202106 383.267835,245.275578 383.708113,246.34905 C384.042397,245.708171 384.392988,245.067292 384.768039,244.426413 C385.14309,243.777523 385.542601,243.144656 385.942112,242.52781 Z M378.563392,252.557565 C379.272727,252.853971 380.039136,253.126345 380.846311,253.374685 C381.302894,251.812543 381.906237,250.186313 382.656339,248.520027 C381.898084,246.845731 381.286588,245.21149 380.821851,243.641337 C380.030982,243.889677 379.264574,244.15404 378.563392,244.450446 C375.67713,245.652094 373.810029,247.246281 373.810029,248.504005 C373.810029,249.76173 375.67713,251.347906 378.563392,252.557565 Z M382.949857,264.005264 C383.194456,264.141451 383.50428,264.21355 383.871178,264.221561 C385.567061,264.221561 388.061965,262.891737 390.719935,260.464408 C389.570322,259.286793 388.428863,257.940948 387.32817,256.458915 C385.493681,256.266651 383.748879,255.970245 382.150836,255.585718 C381.971464,256.394827 381.824704,257.187915 381.735018,257.940948 C381.359967,261.001144 381.841011,263.380407 382.949857,264.005264 Z M402.289442,257.900893 C402.199755,257.155871 402.052996,256.378805 401.865471,255.569696 C400.267428,255.962234 398.522625,256.25864 396.679984,256.450904 C395.595597,257.932937 394.454138,259.270771 393.312678,260.448386 C395.970648,262.859693 398.473706,264.181506 400.161435,264.181506 C400.536486,264.181506 400.854464,264.117418 401.099062,263.97322 C402.199755,263.340352 402.672646,260.961089 402.289442,257.900893 Z M405.428455,252.557565 C408.314717,251.355917 410.181818,249.76173 410.189971,248.504005 C410.189971,247.246281 408.32287,245.660105 405.436608,244.450446 C404.719119,244.15404 403.952711,243.881666 403.145536,243.633326 C402.688952,245.195468 402.085609,246.821698 401.335508,248.487984 C402.093763,250.16228 402.705259,251.796521 403.169996,253.366674 C403.960864,253.118334 404.727273,252.853971 405.428455,252.557565 Z" id="Shape" fill="#FFFFFF"></path>
        </g>
    </g>
</svg>